<svg width="24" height="24" viewBox="0 0 24 24" fill="none" xmlns="http://www.w3.org/2000/svg">
<g clip-path="url(#clip0_220_285)">
<path fill-rule="evenodd" clip-rule="evenodd" d="M11.9958 0.6C9.16481 0.601469 6.42662 1.60416 4.27087 3.42879C2.11513 5.25341 0.682406 7.78099 0.228891 10.5596C-0.224624 13.3381 0.330635 16.1865 1.7954 18.5953C3.26015 21.0042 5.53889 22.8165 8.22415 23.7081C8.81656 23.818 9.0397 23.4509 9.0397 23.1387C9.0397 22.8265 9.02785 21.9213 9.0239 20.9317C5.7064 21.6484 5.00538 19.5318 5.00538 19.5318C4.46431 18.1574 3.68233 17.7961 3.68233 17.7961C2.60019 17.0617 3.7633 17.0755 3.7633 17.0755C4.96194 17.1599 5.59188 18.2987 5.59188 18.2987C6.65427 20.111 8.38212 19.5868 9.06142 19.2805C9.16805 18.5127 9.47809 17.9905 9.81971 17.694C7.16966 17.3955 4.38532 16.3785 4.38532 11.835C4.3689 10.6567 4.80865 9.51714 5.6136 8.65219C5.49116 8.35375 5.08239 7.14818 5.7301 5.51064C5.7301 5.51064 6.73128 5.19256 9.01009 6.72603C10.9647 6.19455 13.027 6.19455 14.9816 6.72603C17.2584 5.19256 18.2576 5.51064 18.2576 5.51064C18.9073 7.14425 18.4985 8.34982 18.3761 8.65219C19.1836 9.51728 19.6243 10.6588 19.6063 11.8389C19.6063 16.3922 16.8161 17.3955 14.1621 17.6881C14.5886 18.0572 14.9697 18.7778 14.9697 19.8852C14.9697 21.4717 14.9559 22.7479 14.9559 23.1387C14.9559 23.4548 15.1711 23.8239 15.7754 23.7081C18.461 22.8164 20.7399 21.0038 22.2047 18.5945C23.6694 16.1852 24.2244 13.3364 23.7703 10.5576C23.3163 7.77879 21.8829 5.25119 19.7264 3.42688C17.57 1.60257 14.8311 0.600538 11.9998 0.6H11.9958Z" fill="#CDCDCD"/>
<path d="M4.58643 17.6252C4.56076 17.6842 4.46597 17.7018 4.38896 17.6606C4.31195 17.6194 4.25469 17.5428 4.28233 17.4819C4.30998 17.421 4.40279 17.4053 4.4798 17.4466C4.55681 17.4878 4.61605 17.5663 4.58643 17.6252Z" fill="#CDCDCD"/>
<path d="M5.07027 18.1613C5.02938 18.1818 4.98259 18.1875 4.93792 18.1774C4.89326 18.1674 4.85349 18.1423 4.82541 18.1063C4.7484 18.0238 4.73259 17.9099 4.79183 17.8589C4.85107 17.8078 4.95772 17.8314 5.03473 17.9139C5.11174 17.9963 5.12951 18.1102 5.07027 18.1613Z" fill="#CDCDCD"/>
<path d="M5.54028 18.8426C5.46722 18.8936 5.3428 18.8426 5.27369 18.7405C5.25458 18.7222 5.23938 18.7002 5.229 18.6759C5.21861 18.6516 5.21326 18.6255 5.21326 18.5991C5.21326 18.5727 5.21861 18.5466 5.229 18.5223C5.23938 18.498 5.25458 18.4761 5.27369 18.4577C5.34675 18.4087 5.47117 18.4577 5.54028 18.5579C5.6094 18.658 5.61137 18.7915 5.54028 18.8426Z" fill="#CDCDCD"/>
<path d="M6.17809 19.5023C6.11292 19.575 5.98062 19.5553 5.87201 19.4572C5.7634 19.359 5.73772 19.2255 5.80289 19.1548C5.86805 19.0841 6.00036 19.1037 6.11292 19.2C6.22548 19.2962 6.2472 19.4316 6.17809 19.5023Z" fill="#CDCDCD"/>
<path d="M7.07258 19.8872C7.04296 19.9794 6.90868 20.0207 6.7744 19.9814C6.64012 19.9421 6.55126 19.8322 6.57693 19.7379C6.6026 19.6437 6.73886 19.6005 6.87511 19.6437C7.01136 19.6869 7.09825 19.7909 7.07258 19.8872Z" fill="#CDCDCD"/>
<path d="M8.04819 19.9539C8.04819 20.0501 7.93761 20.1326 7.79543 20.1346C7.65325 20.1365 7.53674 20.058 7.53674 19.9618C7.53674 19.8656 7.64732 19.7831 7.7895 19.7811C7.93168 19.7792 8.04819 19.8557 8.04819 19.9539Z" fill="#CDCDCD"/>
<path d="M8.95652 19.8027C8.9743 19.899 8.87556 19.9991 8.73338 20.0227C8.5912 20.0462 8.4668 19.9893 8.44902 19.895C8.43125 19.8008 8.53394 19.6987 8.67217 19.6732C8.81039 19.6476 8.93875 19.7065 8.95652 19.8027Z" fill="#CDCDCD"/>
</g>
<defs>
<clipPath id="clip0_220_285">
<rect width="24" height="24" rx="6" fill="white"/>
</clipPath>
</defs>
</svg>
