<svg width="28" height="28" viewBox="0 0 28 28" fill="none" xmlns="http://www.w3.org/2000/svg">
<circle cx="14" cy="14" r="13.5" stroke="#cdcdcd"/>
<path d="M6.27434 11.0872L6.7699 10.757C7.34463 10.3742 8.01978 10.1699 8.71036 10.1699L19.2896 10.1699C19.9802 10.1699 20.6554 10.3742 21.2301 10.757L21.7257 11.0872C23.8051 12.4724 23.805 15.5276 21.7257 16.9128L21.2301 17.243C20.6554 17.6258 19.9802 17.8301 19.2896 17.8301L8.71036 17.8301C8.01978 17.8301 7.34463 17.6258 6.7699 17.243L6.27434 16.9128C4.19495 15.5276 4.19495 12.4724 6.27434 11.0872Z" stroke="#cdcdcd"/>
<path d="M16.9128 6.27434L17.243 6.7699C17.6258 7.34463 17.8301 8.01978 17.8301 8.71036V19.2896C17.8301 19.9802 17.6258 20.6554 17.243 21.2301L16.9128 21.7257C15.5276 23.8051 12.4724 23.805 11.0872 21.7257L10.757 21.2301C10.3742 20.6554 10.1699 19.9802 10.1699 19.2896V8.71036C10.1699 8.01978 10.3742 7.34463 10.757 6.7699L11.0872 6.27434C12.4724 4.19495 15.5276 4.19495 16.9128 6.27434Z" stroke="#cdcdcd"/>
<path d="M10.5968 6.47744L11.1807 6.59442C11.8578 6.73008 12.4797 7.06303 12.968 7.55134L20.4487 15.032C20.937 15.5203 21.2699 16.1422 21.4056 16.8193L21.5226 17.4032C22.0134 19.853 19.8531 22.0134 17.4032 21.5225L16.8193 21.4056C16.1422 21.2699 15.5204 20.937 15.032 20.4486L7.55137 12.968C7.06305 12.4796 6.73011 11.8578 6.59444 11.1807L6.47746 10.5968C5.98662 8.14695 8.14698 5.9866 10.5968 6.47744Z" stroke="#cdcdcd"/>
<path d="M21.5226 10.5968L21.4056 11.1807C21.2699 11.8578 20.937 12.4797 20.4487 12.968L12.968 20.4487C12.4797 20.937 11.8578 21.2699 11.1807 21.4056L10.5968 21.5226C8.14697 22.0134 5.98661 19.8531 6.47745 17.4032L6.59443 16.8193C6.7301 16.1422 7.06304 15.5204 7.55136 15.032L15.032 7.55137C15.5204 7.06305 16.1422 6.73011 16.8193 6.59444L17.4032 6.47746C19.853 5.98662 22.0134 8.14698 21.5226 10.5968Z" stroke="#cdcdcd"/>
</svg>
