<svg
            width="24"
            height="24"
            fill="none"
            xmlns="http://www.w3.org/2000/svg"
          >
            <path
              d="M4.805 5.28c-.381.091-.618.495-.526.897.071.31.318.523.653.562.114.014 3.376.02 7.248.013 7.548-.013 7.106 0 7.334-.207.15-.136.219-.308.219-.545 0-.237-.069-.409-.219-.545-.228-.207.224-.195-7.434-.201-3.927-.004-7.201.008-7.275.026m0 6c-.381.091-.618.495-.526.897.071.31.318.523.653.562.114.014 3.376.02 7.248.013 7.548-.013 7.106 0 7.334-.207.15-.136.219-.308.219-.545 0-.237-.069-.409-.219-.545-.228-.207.224-.195-7.434-.201-3.927-.004-7.201.008-7.275.026m0 6c-.381.091-.618.495-.526.897.071.31.318.523.653.562.114.014 3.376.02 7.248.013 7.548-.013 7.106 0 7.334-.207.15-.136.219-.308.219-.545 0-.237-.069-.409-.219-.545-.228-.207.224-.195-7.434-.201-3.927-.004-7.201.008-7.275.026"
              fill-rule="evenodd"
              fill="#cdcdcd"
            />
          </svg>