<svg width="133" height="49" viewBox="0 0 133 49" fill="none" xmlns="http://www.w3.org/2000/svg">
<path d="M36.632 47H22.808V39H0.984V26.584L18.136 1.688H36.568V27.096H42.712V39H36.632V47ZM22.744 15.64L15.192 27.096H23V15.64H22.744ZM66.2125 48.28C63.4392 48.28 61.0072 47.9173 58.9165 47.192C56.8258 46.4667 55.0338 45.4853 53.5405 44.248C52.0472 43.0107 50.7885 41.5813 49.7645 39.96C48.7832 38.3387 47.9938 36.632 47.3965 34.84C46.8418 33.048 46.4365 31.2347 46.1805 29.4C45.9672 27.5653 45.8605 25.7947 45.8605 24.088C45.8605 22.424 45.9672 20.6747 46.1805 18.84C46.4365 17.0053 46.8418 15.2133 47.3965 13.464C47.9938 11.7147 48.7832 10.0507 49.7645 8.472C50.7885 6.89333 52.0472 5.50666 53.5405 4.312C55.0338 3.11733 56.8258 2.17866 58.9165 1.496C61.0072 0.770664 63.4392 0.407997 66.2125 0.407997C70.3938 0.407997 73.8072 1.176 76.4525 2.712C79.0978 4.20533 81.1672 6.12533 82.6605 8.472C84.1538 10.776 85.1778 13.336 85.7325 16.152C86.2872 18.9253 86.5645 21.5707 86.5645 24.088C86.5645 25.752 86.4365 27.5227 86.1805 29.4C85.9672 31.2347 85.5618 33.048 84.9645 34.84C84.4098 36.632 83.6418 38.3387 82.6605 39.96C81.6792 41.5813 80.4205 43.0107 78.8845 44.248C77.3912 45.4853 75.5992 46.4667 73.5085 47.192C71.4178 47.9173 68.9858 48.28 66.2125 48.28ZM66.2125 13.528C65.2738 13.528 64.5058 13.848 63.9085 14.488C63.3112 15.128 62.8418 15.96 62.5005 16.984C62.1592 18.008 61.9245 19.16 61.7965 20.44C61.6685 21.6773 61.6045 22.8933 61.6045 24.088C61.6045 25.3253 61.6685 26.6053 61.7965 27.928C61.9245 29.208 62.1592 30.3813 62.5005 31.448C62.8418 32.5147 63.3112 33.3893 63.9085 34.072C64.5058 34.712 65.2738 35.032 66.2125 35.032C67.1512 35.032 67.9192 34.712 68.5165 34.072C69.1565 33.3893 69.6258 32.5147 69.9245 31.448C70.2658 30.3813 70.5005 29.208 70.6285 27.928C70.7565 26.6053 70.8205 25.3253 70.8205 24.088C70.8205 22.8933 70.7565 21.6773 70.6285 20.44C70.5005 19.16 70.2658 18.008 69.9245 16.984C69.6258 15.96 69.1565 15.128 68.5165 14.488C67.9192 13.848 67.1512 13.528 66.2125 13.528ZM126.257 47H112.433V39H90.609V26.584L107.761 1.688H126.193V27.096H132.337V39H126.257V47ZM112.369 15.64L104.817 27.096H112.625V15.64H112.369Z" fill="#5BC3EB"/>
</svg>
