<svg xmlns="http://www.w3.org/2000/svg" width="50" height="50"><path fill="#097CEB" d="M28.958 2.048c-.137.02-.546.077-.908.126-1.362.184-2.925.759-3.988 1.465-1.978 1.315-3.21 3.244-3.82 5.986-.176.788-.187 1.063-.22 5.102l-.034 4.268-3.701.023-3.701.024-.272.272-.272.273v7.826l.272.273.272.272 3.706.024 3.706.023.022 9.704.022 9.704.272.273.273.272h7.826l.273-.272.272-.273.022-9.706.022-9.707 3.728-.001c2.793-.001 3.779-.027 3.929-.104.496-.256.506-.3.941-4.121.223-1.961.388-3.712.367-3.891a.963.963 0 0 0-.296-.584l-.257-.257-4.212-.023-4.212-.023.026-2.852.026-2.852.235-.51a3.211 3.211 0 0 1 1.515-1.507l.5-.233L34.353 11l3.061-.042.272-.272.272-.273V2.847l-.199-.213c-.297-.315-.559-.367-2.342-.462-1.83-.098-6.077-.179-6.459-.124" fill-rule="evenodd"/></svg>