<svg width="101" height="120" viewBox="0 0 101 120" fill="none" xmlns="http://www.w3.org/2000/svg">
<path d="M33.7052 119.707C35.2553 119.075 35.874 117.512 35.874 116.107C35.874 114.253 35.8108 109.349 35.7746 102.84C15.3223 107.553 11.0071 92.3805 11.0071 92.3805C7.6623 83.3671 2.84149 80.9677 2.84149 80.9677C-3.83452 76.1257 3.34704 76.2262 3.34704 76.2262C10.7272 76.777 14.6091 84.2675 14.6091 84.2675C21.1723 96.188 31.8205 92.7445 36.0094 90.7474C36.6774 85.7043 38.5778 82.2703 40.6767 80.3163C24.3501 78.3479 7.18383 71.6573 7.18383 41.7625C7.18383 33.2423 10.0501 26.2787 14.7536 20.8237C13.9998 18.8505 11.4765 10.9194 15.4758 0.18178C15.4758 0.18178 21.6508 -1.92072 35.6934 8.17512C41.5614 6.44618 47.8492 5.57932 54.1009 5.55058C60.3481 5.57932 66.6359 6.44618 72.513 8.17512C86.5466 -1.92072 92.7125 0.18178 92.7125 0.18178C96.7209 10.9194 94.1976 18.8505 93.4438 20.8237C98.1563 26.2787 101 33.2423 101 41.7625C101 71.7291 83.8112 78.324 67.4304 80.2588C70.071 82.6678 72.4182 87.4284 72.4182 94.7034C72.4182 105.134 72.3324 113.549 72.3324 116.107C72.3324 117.642 73.047 119.358 74.9081 119.857H77.388C76.3989 120.059 75.579 120.037 74.9081 119.857H72.9117H54.1009C44.4292 119.857 37.9556 119.797 33.7052 119.707Z" fill="#E6EDF3"/>
</svg>
