<svg width="100" height="100" viewBox="0 0 100 100" fill="none" xmlns="http://www.w3.org/2000/svg">
<path d="M9.33345 66.2029C9.12086 66.1399 8.82961 66.145 8.70711 66.0038C4.89901 61.6139 1.97917 56.7411 0.692941 51.006C0.492308 50.1114 0.424531 49.187 0.341156 48.148C0.476663 47.1332 0.521347 46.2388 0.673872 45.3631C0.757417 44.8835 1.0146 44.432 1.21132 43.9755C1.27781 43.8212 1.49943 43.6748 1.48006 43.5514C1.2581 42.1384 2.11052 41.2071 2.74745 40.0769C3.47201 38.7912 4.52875 37.5666 4.58167 35.9495C4.58506 35.8458 4.667 35.7298 4.74177 35.6457C5.62483 34.6519 6.35727 33.5826 6.76779 32.2889C6.93697 31.7557 7.29666 31.2543 7.66574 30.82C8.24208 30.1418 8.93715 29.5647 9.51549 28.888C10.5581 27.6682 11.6233 26.456 12.533 25.1397C12.946 24.5421 13.284 24.2083 14.0236 24.2665C14.6391 24.3149 15.217 24.2603 15.3465 23.3949C15.4032 23.0157 15.808 22.3871 16.0538 22.3875C17.4712 22.39 18.0109 21.4684 18.7595 20.4693C19.7536 19.1426 21.1217 18.0927 22.349 16.9452C23.7742 15.6126 25.3851 14.5481 27.2266 13.8945C28.9864 13.27 30.7897 12.7688 32.5532 12.1541C33.9581 11.6643 35.3662 11.2793 36.8705 11.408C37.5247 11.4639 37.7736 11.145 37.7025 10.5225C38.0541 10.5234 38.4057 10.5244 38.8372 10.5917C39.0934 10.8514 39.2698 11.0447 39.468 11.2736C39.526 11.3533 39.5703 11.3863 39.6485 11.42C39.6741 11.4319 39.7299 11.4405 39.7512 11.4985C40.407 12.8471 41.2474 14.0784 41.6387 15.4389C42.9942 20.1524 42.205 24.6304 39.4879 28.666C38.1598 30.6387 36.4575 32.3595 34.873 34.2212C33.3398 35.3971 31.8777 36.5724 30.3708 37.6871C29.0739 38.6465 27.7259 39.5367 26.3457 40.4626C26.1475 40.5702 26.0039 40.6728 25.8135 40.8044C25.5691 40.988 25.3716 41.1427 25.1138 41.312C21.0324 43.6666 17.223 46.2991 14.1734 49.8535C12.999 51.2223 12.1045 52.8312 11.0375 54.3732C9.00379 58.1427 8.15724 62.0305 9.33345 66.2029Z" fill="#FCFAF5"/>
<path d="M77.7022 22.0253C79.3813 23.7718 81.0605 25.5182 82.7509 27.3798C82.5014 27.9531 82.7887 28.2115 83.095 28.4646C83.0773 28.4727 83.0741 28.5187 83.0741 28.5187C83.0741 28.5187 83.1117 28.4554 83.1546 28.4995C83.3239 28.831 83.4487 29.1191 83.5767 29.4058C84.4298 31.3164 85.344 33.2025 86.1227 35.1429C87.2468 37.9438 87.7253 40.8911 87.8032 43.9001C87.8397 45.3065 87.9561 46.7343 87.7726 48.1173C87.5076 50.1145 87.1528 52.126 86.5614 54.0467C85.8644 56.3102 85.0397 58.5556 83.7414 60.5775C83.1061 61.5667 82.5507 62.6167 81.8325 63.5407C80.8262 64.8353 79.7103 66.0456 78.626 67.2786C76.0068 70.2572 72.8607 72.5966 69.4295 74.5201C67.4153 75.6493 65.288 76.631 63.1148 77.4089C60.3504 78.3985 57.4918 79.1272 54.6657 79.9404C53.894 80.1625 53.0935 80.2845 52.3266 80.3934C52.8164 80.0387 53.4053 79.8392 53.7347 79.4306C55.162 77.6602 56.4923 75.812 57.901 74.0261C58.6826 73.0351 59.534 72.0975 60.3819 71.1612C60.9925 70.487 61.6663 69.8701 62.2782 69.197C62.583 68.8617 62.7544 68.3933 63.0857 68.0961C64.3057 67.0019 65.5832 65.9719 66.8068 64.8815C67.4713 64.2894 67.9682 63.4317 68.7203 63.0316C70.3355 62.1723 71.283 60.6564 72.4347 59.4006C74.0178 57.6744 75.248 55.6143 76.5496 53.6446C77.177 52.6952 77.6634 51.6442 78.1372 50.6044C78.5622 49.6716 78.8133 48.6573 79.2618 47.7378C80.6698 44.8518 81.1942 41.7507 81.3271 38.6093C81.424 36.3194 81.274 33.9933 80.9647 31.7199C80.7135 29.8739 80.6883 27.941 79.7594 26.2217C79.6667 26.05 79.8159 25.7475 79.8493 25.5289C79.6923 25.4483 79.4463 25.3992 79.3385 25.2501C79.1304 24.9622 79.0229 24.6038 78.8333 24.2998C78.3558 23.5343 77.8559 22.7828 77.3675 22.0233C77.3701 22.0209 77.3752 22.0161 77.4296 22.018C77.5568 22.0217 77.6295 22.0235 77.7022 22.0253Z" fill="#0C1921"/>
<path d="M50.0504 10.37C51.8191 10.6327 53.5879 10.8953 55.4436 11.2446C56.8566 12.2402 57.9211 13.4235 58.6848 14.8062C59.8746 16.9603 60.9618 19.0974 61.0181 21.7393C61.0977 25.4713 60.9767 29.0961 59.3355 32.5247C59.1614 32.8883 59.0417 33.3861 58.7434 33.5627C57.6784 34.1932 57.2166 35.3489 56.2946 36.1121C55.3184 36.0234 54.431 36.164 53.5339 36.4464C52.5791 36.7471 51.5347 36.7835 50.6031 37.1322C49.295 37.6218 48.0789 38.3527 46.7806 38.8734C44.6455 39.7297 42.4761 40.5003 40.3322 41.2502C40.431 41.0826 40.5032 40.9535 40.6089 40.8639C44.103 37.9014 47.0942 34.5506 48.9675 30.297C50.1092 27.7043 50.5433 24.9654 50.5059 22.19C50.4734 19.7833 49.8669 17.4577 48.5582 15.3546C47.2433 13.2416 45.5531 11.5749 43.21 10.5172C42.5794 10.4277 42.0205 10.3459 41.4616 10.2641C41.4615 10.24 41.4614 10.2159 41.4613 10.1918C42.3568 10.1918 43.2523 10.1918 44.1478 10.1918C44.2779 10.1929 44.408 10.1939 44.6785 10.1976C45.1732 10.1908 45.5276 10.1813 45.8819 10.1719C46.1253 10.1741 46.3687 10.1763 46.7641 10.1855C47.9609 10.2517 49.0056 10.3108 50.0504 10.37Z" fill="#BF8674"/>
<path d="M77.3649 22.0255C77.8559 22.7826 78.3558 23.5341 78.8334 24.2997C79.0229 24.6036 79.1304 24.9621 79.3385 25.25C79.4463 25.399 79.6923 25.4481 79.8493 25.5288C79.8159 25.7473 79.6667 26.0498 79.7595 26.2215C80.6883 27.9409 80.7135 29.8738 80.9647 31.7198C81.274 33.9931 81.424 36.3192 81.3271 38.6091C81.1942 41.7505 80.6698 44.8516 79.2618 47.7376C78.8133 48.6571 78.5622 49.6714 78.1372 50.6042C77.6634 51.6441 77.177 52.6951 76.5497 53.6444C75.248 55.6142 74.0178 57.6742 72.4347 59.4004C71.283 60.6563 70.3355 62.1722 68.7203 63.0314C67.9682 63.4315 67.4713 64.2892 66.8068 64.8814C65.5832 65.9717 64.3057 67.0017 63.0858 68.096C62.7545 68.3931 62.583 68.8615 62.2782 69.1968C61.6664 69.8699 60.9925 70.4868 60.382 71.161C59.534 72.0973 58.6826 73.0349 57.901 74.0259C56.4923 75.8119 55.162 77.66 53.7347 79.4304C53.4053 79.839 52.8164 80.0385 52.2478 80.3959C49.5973 80.5796 47.0459 80.7015 44.4948 80.7545C44.5456 80.5262 44.5709 80.2423 44.6502 80.2263C45.529 80.0495 45.2738 79.3611 45.3871 78.7933C45.4861 78.2966 45.6675 77.637 46.0334 77.4177C46.5035 77.1357 47.1262 77.2996 47.5261 77.9091C47.6593 78.112 48.1448 78.1905 48.4406 78.1439C48.6509 78.1107 48.9885 77.7522 48.9677 77.5741C48.8538 76.599 49.3865 76.4307 50.1825 76.3837C51.1285 76.328 52.083 76.015 53.0076 76.0998C54.2315 76.212 54.8047 75.7864 54.6172 74.5581C54.5282 73.9754 54.6722 73.7198 55.3151 73.4366C56.0931 73.094 57.125 72.8869 57.3746 71.7251C57.5172 71.0617 57.7567 70.2814 58.841 70.2791C58.2259 69.1025 58.8979 68.7093 59.7843 68.4035C60.3158 68.2201 60.9559 68.0749 61.3024 67.6914C61.9669 66.9559 63.0692 66.6352 63.3595 65.5409C63.3961 65.4028 63.6152 65.3176 63.7403 65.198C64.8521 64.1346 65.99 63.0964 67.0623 61.9945C67.7766 61.2606 68.3202 60.3483 69.0818 59.6763C69.7499 59.0868 70.0815 58.5989 69.2989 57.7208C69.6694 57.7676 69.8686 57.8485 70.0318 57.8023C70.4309 57.6891 70.8381 57.5556 71.1804 57.3346C71.2444 57.2933 70.9699 56.8121 70.942 56.5252C70.8939 56.0298 70.8007 55.4938 70.934 55.0352C71.2053 54.1021 72.0292 54.189 72.7994 54.194C73.9406 54.2013 74.2533 53.9147 74.2835 53.1633C73.9188 53.2088 73.531 53.2572 73.1431 53.3057C73.0632 52.4317 72.2006 52.3964 71.7286 51.9461C71.2397 51.4796 70.9215 50.8341 70.5341 50.2747C71.0811 49.9465 71.4371 49.7329 71.8806 49.4668C72.1086 49.8872 72.3139 50.2658 72.6424 50.8714C72.7426 50.3843 72.839 50.1278 72.8402 49.8709C72.844 49.0609 72.7107 48.2172 73.6962 47.8037C73.8047 47.7582 73.8624 47.5088 73.8817 47.3466C74.0303 46.0928 74.2983 44.8923 75.0049 43.802C75.2615 43.406 75.5142 42.8021 75.3929 42.409C75.1317 41.5625 75.7067 41.1861 76.0418 40.6288C76.3101 40.1826 76.5236 39.6611 76.5975 39.1493C76.74 38.1622 76.7443 37.1557 76.8599 36.1635C76.8834 35.9617 77.1077 35.7014 77.3038 35.6162C78.0579 35.2885 78.0372 34.7791 77.6452 34.2307C77.2724 33.709 77.3372 33.3451 77.7463 32.8559C78.0204 32.5281 78.1212 32.0098 78.1798 31.5611C78.2305 31.173 78.0691 30.7618 78.0785 30.3626C78.0952 29.6497 78.3784 29.1365 79.4296 29.2239C79.3002 28.6266 79.3138 27.7749 79.0643 27.6893C77.6579 27.2064 78.1676 25.776 77.5469 24.9414C77.9113 22.6125 75.8443 21.7853 74.7972 20.2473C74.4465 20.7375 74.1794 21.111 73.868 21.4412C73.617 20.5527 73.41 19.7075 73.203 18.8623C73.5115 18.9703 73.8698 19.0117 74.1195 19.1983C74.9789 19.8406 75.8003 20.5337 76.6365 21.3008C76.7912 21.436 76.9456 21.4779 77.1001 21.5197C77.1001 21.5197 77.1579 21.5272 77.137 21.6068C77.199 21.7994 77.282 21.9125 77.3649 22.0255Z" fill="#152A3A"/>
<path d="M44.2067 87.5233C44.139 87.5409 44.0712 87.5584 43.9672 87.4849C43.88 87.2964 43.8511 87.1388 43.7749 87.111C42.7935 86.7527 41.81 86.3975 40.8126 86.0881C40.6904 86.0502 40.4843 86.2826 40.3171 86.3897C38.3205 85.6921 36.3185 85.0095 34.3302 84.289C33.6035 84.0257 32.9093 83.6724 32.2172 83.2863C33.0151 83.2842 33.7961 83.3559 34.5927 83.4898C35.132 83.7375 35.6438 83.9735 36.1815 84.0992C38.0273 84.5308 39.8645 85.0785 41.7381 85.2929C44.1602 85.5702 46.6131 85.6148 49.0548 85.6704C50.3784 85.7006 51.7267 85.6679 53.028 85.4495C56.0861 84.9362 59.1987 84.7036 62.1631 83.6714C64.0935 82.9992 66.1229 82.585 68.0035 81.8039C69.8805 81.0242 71.6571 79.9825 73.4217 78.9591C74.7981 78.1609 76.1619 77.3058 77.3987 76.3111C78.9018 75.1022 80.372 73.8162 81.6621 72.3881C83.1364 70.756 84.4906 68.9939 85.7189 67.1685C86.5982 65.8616 87.2322 64.3793 87.8884 62.9357C88.62 61.3261 89.384 59.7112 89.89 58.0253C90.3498 56.4932 90.5342 54.8696 90.7437 53.2737C90.931 51.847 91.1055 50.4002 91.0706 48.9675C91.0274 47.1995 90.7869 45.4341 90.585 43.673C90.3977 42.0382 90.0765 40.4342 89.2215 38.9851C89.0979 38.7756 88.992 38.4675 89.0526 38.2548C89.2131 37.6912 88.9916 37.3383 88.6096 36.9696C88.416 36.7827 88.3344 36.4735 88.2196 36.2119C87.7437 35.128 87.5882 33.8753 86.5856 33.0724C86.4675 32.9778 86.2545 33.0017 86.0519 32.9198C84.9969 31.1027 83.9754 29.3365 82.9539 27.5703C83.1088 27.6314 83.2971 27.6552 83.4136 27.7593C84.8006 28.9978 86.1769 30.2483 87.5331 31.5759C87.0368 32.2632 87.8603 32.207 87.9816 32.5421C88.3679 33.6093 88.8762 34.6321 89.3307 35.6749C89.5944 36.2802 89.8731 36.881 90.0964 37.5013C90.6688 39.0915 91.2119 40.6922 91.772 42.2868C91.8767 42.585 92.0772 42.8669 92.1099 43.1697C92.2092 44.0908 92.2142 45.0223 92.3201 45.9423C92.4246 46.8503 92.6946 47.7454 92.7346 48.6531C92.7913 49.9382 92.7055 51.2297 92.6763 52.5183C92.6684 52.8647 92.6856 53.2186 92.6215 53.5557C92.3017 55.2352 92.0728 56.9437 91.5944 58.5784C91.0126 60.5663 90.2787 62.5176 89.4833 64.4319C89.0332 65.515 88.2583 66.4589 87.7509 67.5233C86.3344 70.4948 84.1365 72.8606 81.7815 75.0509C80.0612 76.6508 78.1332 78.0529 76.1822 79.3721C74.3078 80.6395 72.3453 81.8136 70.3071 82.7899C68.7498 83.5358 67.0048 83.8828 65.3598 84.4546C62.9506 85.292 60.4946 85.9017 57.9635 86.2431C55.9792 86.5108 54.018 87.0058 52.0281 87.1579C50.5701 87.2693 49.0881 87.559 47.5882 87.1828C47.2985 87.1101 46.3837 86.5626 46.1881 87.5995C46.1451 87.5995 46.059 87.5986 46.0149 87.5509C45.3827 87.5099 44.7947 87.5166 44.2067 87.5233Z" fill="#070C12" fill-opacity="0.5"/>
<path d="M66.0648 89.1648C64.8879 89.286 63.7131 89.475 62.5334 89.5127C60.7095 89.5711 58.882 89.5434 57.0565 89.5165C56.3396 89.5059 55.6241 89.399 54.8555 89.2621C56.0169 88.9782 57.2286 88.7531 58.4473 88.576C58.6082 88.5526 58.8177 88.8827 58.9824 88.863C59.7815 88.7674 60.5731 88.6083 61.4278 88.4734C61.8904 88.6496 62.2794 88.8758 62.6987 88.9822C63.0344 89.0674 63.4408 89.1035 63.7568 88.9928C64.6246 88.6889 65.4413 88.228 66.3193 87.9687C66.7283 87.8478 67.2746 87.9526 67.6831 88.1295C68.1929 88.3503 68.4764 88.2988 68.751 87.8202C68.8988 87.5624 69.1192 87.2924 69.3751 87.1617C69.9211 86.8827 70.513 86.6944 71.0835 86.4624C71.5553 86.2706 72.025 86.0734 72.4927 85.8719C73.8063 85.3062 75.3716 85.2805 76.3796 84.0498C76.4763 83.9318 76.6899 83.9143 76.8418 83.8358C77.4553 83.5188 78.0648 83.1941 78.6782 82.8767C78.8663 82.7794 79.1382 82.5666 79.2418 82.6275C80.0186 83.0843 80.3229 82.4696 80.786 82.0656C81.6223 81.336 82.4426 80.5057 83.4235 80.046C84.527 79.5288 85.5756 79.1652 85.5857 77.71C85.5866 77.5794 85.6693 77.4171 85.7665 77.3245C86.4199 76.7022 87.0773 76.0834 87.753 75.4857C88.4478 74.8712 89.2508 74.3357 89.0805 73.2147C89.0608 73.085 89.0813 72.8909 89.1642 72.813C89.87 72.1502 90.5945 71.5074 91.3337 70.8403C91.2203 70.5535 91.0806 70.2001 90.9226 69.8006C91.4945 69.6435 91.9506 69.5182 92.4209 69.389C91.8132 68.3616 92.0423 67.3852 92.6325 66.4569C93.2522 65.4824 93.6497 64.3542 94.0578 63.2609C94.4617 62.1792 94.2294 60.8446 95.3945 60.0641C95.5283 59.9744 95.5438 59.6615 95.5583 59.4483C95.6319 58.3634 95.4588 57.3013 95.7731 56.1824C96.1287 54.9167 96.0599 53.5294 96.1543 52.1936C96.1964 51.5965 96.1736 50.9952 96.2026 50.3968C96.2679 49.0522 95.3219 47.8143 95.7896 46.4219C95.8353 46.2859 95.766 46.0408 95.6608 45.9356C94.702 44.977 95.2524 43.7389 95.2744 42.7158C95.2895 42.0136 95.1332 41.6322 94.7891 41.1707C94.4971 40.7791 94.2069 40.3863 93.9159 39.994C93.967 39.9625 94.018 39.9309 94.069 39.8994C94.3131 40.0295 94.5571 40.1596 94.8011 40.2898C95.3848 41.3155 95.9685 42.3412 96.5375 43.5061C96.3546 44.4904 96.0018 45.2565 96.9245 46.0491C97.6215 46.6477 97.4162 47.0504 96.5859 47.5799C96.6684 47.8616 96.7518 48.1465 96.8436 48.46C97.0965 48.2598 97.3014 48.0976 97.5297 47.917C97.4976 48.6285 97.4718 49.2 97.4401 49.902C97.8732 49.7763 98.1785 49.6877 98.5705 49.5739C98.4517 50.045 98.3534 50.435 98.2486 50.8505C98.0613 50.8402 97.8696 50.8296 97.842 50.8281C97.6127 51.2801 97.4293 51.6418 97.2201 52.0542C97.9505 52.0433 97.9684 52.6221 97.8893 53.1916C97.7597 54.1253 97.557 55.0488 97.4165 55.9813C97.3812 56.2158 97.3874 56.519 97.5079 56.7035C97.9784 57.4243 97.9441 57.6104 97.1653 57.9542C97.1241 57.9725 97.1082 58.0483 96.9858 58.2648C97.1564 58.3239 97.379 58.4009 97.6919 58.5093C97.3099 58.7845 97.1329 58.912 97.0241 58.9904C97.1907 59.4133 97.5158 59.8342 97.4397 60.1619C97.3665 60.4774 96.8783 60.6966 96.5441 60.9824C97.4607 61.34 97.6865 61.7281 97.1584 62.1937C96.1664 63.0685 96.9835 64.0906 96.7514 64.7037C96.358 65.4893 96.0875 66.0294 95.8674 66.4688C95.5496 66.6486 95.1139 66.7547 95.0612 66.9594C94.9908 67.2333 95.2172 67.5835 95.3549 68.0255C95.1336 68.8704 93.7404 69.4478 94.3117 70.7619C93.9351 70.9892 93.5619 71.2144 93.3265 71.3565C93.6069 71.8699 94.0051 72.2656 93.9919 72.647C93.9675 73.3571 93.2598 73.1097 92.8198 73.2034C91.6752 73.4472 91.5877 73.6621 92.2394 74.6896C92.2764 74.7479 92.2442 74.8502 92.2442 75.0322C91.9312 75.0478 91.6143 75.0179 91.323 75.0905C91.0055 75.1696 90.6207 75.2648 90.4242 75.4911C89.7734 76.2404 89.1942 77.0519 88.5939 77.8313C88.7373 77.883 88.9161 77.9473 89.187 78.0449C88.3834 78.3252 87.9929 79.1242 88.1857 79.8439C88.0411 79.9654 87.9347 80.0511 87.7756 80.1069C87.5609 80.0009 87.3989 79.9249 87.1132 79.7909C87.1132 80.2139 87.1132 80.5152 87.0563 80.8349C84.3272 82.7656 81.4082 84.2299 78.4303 85.5901C78.06 85.7592 77.7258 86.0076 77.3749 86.2192C77.2995 86.2235 77.224 86.2278 77.0362 86.241C74.9348 86.8296 72.9445 87.4053 70.9592 87.9974C70.8212 88.0385 70.7196 88.2017 70.6011 88.3081C70.5231 88.3085 70.445 88.309 70.2351 88.3104C68.9081 88.492 67.7114 88.6636 66.5194 88.8638C66.3557 88.8913 66.2158 89.061 66.0648 89.1648Z" fill="#070C12" fill-opacity="0.1"/>
<path d="M37.6256 10.5264C37.7735 11.1454 37.5247 11.4643 36.8705 11.4084C35.3661 11.2797 33.9581 11.6647 32.5532 12.1545C30.7897 12.7693 28.9863 13.2704 27.2266 13.8949C25.3851 14.5485 23.7741 15.613 22.3489 16.9456C21.1216 18.0931 19.7536 19.143 18.7595 20.4697C18.0108 21.4688 17.4712 22.3904 16.0538 22.3879C15.808 22.3875 15.4032 23.0161 15.3465 23.3953C15.217 24.2607 14.6391 24.3153 14.0236 24.2669C13.284 24.2087 12.946 24.5426 12.533 25.1401C11.6233 26.4564 10.558 27.6686 9.51547 28.8884C8.93712 29.5651 8.24205 30.1422 7.66571 30.8204C7.29664 31.2547 6.93694 31.7562 6.76776 32.2893C6.35725 33.583 5.62481 34.6523 4.74175 35.6461C4.66697 35.7302 4.58503 35.8462 4.58164 35.9499C4.52872 37.567 3.47198 38.7916 2.74742 40.0773C2.11049 41.2075 1.25807 42.1388 1.48003 43.5518C1.4994 43.6752 1.27779 43.8216 1.21129 43.9759C1.01458 44.4324 0.757391 44.8839 0.673847 45.3635C0.521322 46.2392 0.476638 47.1336 0.339485 48.0715C0.186881 46.8941 -0.00572511 45.6649 0.000130347 44.4367C0.00656995 43.0858 0.0390997 41.6994 0.341316 40.3936C0.80727 38.3802 1.44078 36.3963 2.14094 34.4495C2.62198 33.1119 3.28241 31.8288 3.96539 30.5774C4.42939 29.7272 5.03637 28.9465 5.64111 28.1836C6.79205 26.7317 7.94288 25.2751 9.18055 23.8984C9.92135 23.0745 10.808 22.3761 11.6623 21.6609C13.028 20.5177 14.3773 19.3468 15.8173 18.3031C16.8822 17.5313 18.0321 16.8365 19.229 16.295C21.9108 15.0815 24.611 13.8921 27.3676 12.8647C30.6469 11.6424 34.0465 10.8351 37.6256 10.5264Z" fill="#F4F8FD"/>
<path d="M94.789 40.229C94.5571 40.1598 94.3131 40.0297 94.069 39.8996C94.018 39.9311 93.967 39.9626 93.9159 39.9941C94.2069 40.3864 94.4971 40.7793 94.7891 41.1708C95.1332 41.6323 95.2895 42.0138 95.2744 42.716C95.2524 43.7391 94.702 44.9772 95.6608 45.9358C95.766 46.0409 95.8353 46.2861 95.7896 46.4221C95.3219 47.8145 96.2679 49.0523 96.2026 50.397C96.1736 50.9953 96.1964 51.5967 96.1543 52.1937C96.0599 53.5296 96.1287 54.9168 95.7731 56.1826C95.4588 57.3014 95.6319 58.3636 95.5583 59.4484C95.5438 59.6616 95.5283 59.9746 95.3945 60.0642C94.2294 60.8448 94.4617 62.1794 94.0578 63.2611C93.6497 64.3544 93.2522 65.4826 92.6325 66.4571C92.0423 67.3854 91.8132 68.3617 92.4209 69.3891C91.9506 69.5183 91.4945 69.6436 90.9226 69.8007C91.0806 70.2002 91.2203 70.5536 91.3337 70.8404C90.5945 71.5075 89.87 72.1504 89.1642 72.8132C89.0813 72.891 89.0608 73.0851 89.0805 73.2149C89.2508 74.3359 88.4478 74.8714 87.753 75.4859C87.0773 76.0836 86.4199 76.7024 85.7665 77.3247C85.6693 77.4172 85.5866 77.5795 85.5857 77.7102C85.5756 79.1654 84.527 79.5289 83.4235 80.0461C82.4426 80.5059 81.6223 81.3362 80.786 82.0658C80.3229 82.4698 80.0186 83.0845 79.2418 82.6277C79.1382 82.5667 78.8663 82.7796 78.6782 82.8769C78.0648 83.1943 77.4553 83.5189 76.8418 83.836C76.6899 83.9145 76.4763 83.9319 76.3796 84.05C75.3716 85.2806 73.8063 85.3063 72.4927 85.872C72.025 86.0735 71.5553 86.2708 71.0835 86.4626C70.513 86.6945 69.9211 86.8829 69.3751 87.1618C69.1192 87.2926 68.8988 87.5626 68.751 87.8203C68.4764 88.299 68.1929 88.3504 67.6831 88.1297C67.2746 87.9528 66.7283 87.848 66.3193 87.9688C65.4413 88.2282 64.6246 88.689 63.7568 88.993C63.4408 89.1037 63.0344 89.0675 62.6987 88.9823C62.2794 88.8759 61.8904 88.6498 61.4284 88.4026C61.4703 87.1248 62.4002 87.6263 62.9678 87.6467C63.9268 87.6811 64.7827 87.634 65.4409 86.8243C65.5519 86.6877 65.7752 86.6242 65.9591 86.5684C66.5608 86.3859 67.168 86.2211 67.7739 86.0527C67.9649 85.9996 68.157 85.947 68.3516 85.9102C69.2283 85.7447 70.1709 85.734 70.9681 85.3876C72.1137 84.8899 73.1512 84.1447 74.2399 83.514C74.9114 83.125 75.665 82.8405 76.2536 82.3541C77.4061 81.4017 78.6884 80.6837 79.9769 79.9534C80.5877 79.6072 81.0879 79.0684 81.6925 78.7078C82.2602 78.369 82.8827 78.1762 82.8494 77.3103C82.8415 77.1061 83.2539 76.8727 83.4926 76.6767C83.6614 76.5382 83.8935 76.4702 84.0453 76.3186C84.7223 75.6425 85.1034 74.6616 86.1464 74.3559C86.3301 74.3021 86.4659 74.0329 86.5919 73.842C87.4134 72.5977 88.2366 71.3543 89.0384 70.0973C89.6932 69.0706 90.378 68.0859 90.7491 66.8726C91.1045 65.7111 91.9089 64.693 92.3261 63.543C92.9793 61.7427 93.5051 59.8935 94.0183 58.0465C94.2387 57.2531 94.3492 56.4171 94.4051 55.5933C94.4596 54.7908 94.3388 53.9776 94.3705 53.172C94.4131 52.0929 94.609 51.0152 94.5892 49.9397C94.5703 48.9112 94.3224 47.8891 94.2448 46.8589C94.1826 46.0339 94.3164 45.1878 94.1984 44.375C94.0357 43.2552 93.7245 42.1564 93.4626 41.052C93.3665 40.6465 93.333 40.1687 93.0925 39.8656C92.3466 38.9255 92.3799 37.8013 92.1993 36.7227C93.0585 37.8711 93.9176 39.0196 94.789 40.229Z" fill="#070C12" fill-opacity="0.2"/>
<path d="M92.181 36.6706C92.3799 37.8018 92.3466 38.9261 93.0925 39.8662C93.333 40.1693 93.3665 40.6471 93.4626 41.0526C93.7245 42.157 94.0357 43.2558 94.1984 44.3756C94.3164 45.1884 94.1826 46.0345 94.2448 46.8595C94.3224 47.8897 94.5703 48.9118 94.5892 49.9403C94.609 51.0158 94.4131 52.0935 94.3705 53.1726C94.3388 53.9782 94.4596 54.7914 94.4051 55.5939C94.3492 56.4177 94.2387 57.2537 94.0183 58.0471C93.5051 59.8941 92.9793 61.7433 92.3261 63.5436C91.9089 64.6936 91.1045 65.7117 90.7491 66.8732C90.378 68.0865 89.6932 69.0712 89.0384 70.0979C88.2366 71.3549 87.4134 72.5983 86.5919 73.8426C86.4659 74.0335 86.3301 74.3027 86.1464 74.3565C85.1034 74.6622 84.7223 75.6431 84.0453 76.3192C83.8935 76.4708 83.6614 76.5387 83.4926 76.6773C83.2539 76.8733 82.8415 77.1067 82.8494 77.3109C82.8827 78.1768 82.2602 78.3696 81.6925 78.7084C81.0879 79.069 80.5877 79.6078 79.9769 79.954C78.6884 80.6843 77.4061 81.4023 76.2536 82.3547C75.665 82.8411 74.9114 83.1256 74.2399 83.5146C73.1512 84.1453 72.1137 84.8905 70.9681 85.3882C70.1709 85.7346 69.2283 85.7453 68.3516 85.9108C68.157 85.9476 67.9649 86.0002 67.7739 86.0533C67.168 86.2217 66.5608 86.3865 65.9591 86.569C65.7752 86.6248 65.5519 86.6883 65.4409 86.8249C64.7827 87.6346 63.9268 87.6817 62.9678 87.6473C62.4002 87.6269 61.4703 87.1254 61.3679 88.4015C60.5731 88.6091 59.7815 88.7682 58.9824 88.8638C58.8177 88.8835 58.6082 88.5534 58.4473 88.5768C57.2286 88.7539 56.0169 88.9789 54.7787 89.2513C53.1578 89.1344 51.5612 88.9552 49.9556 88.6635C50.3838 88.4673 50.8194 88.3728 51.2588 88.3023C52.0981 88.1677 52.9435 88.0679 53.7788 87.9126C54.3128 87.8133 54.8263 87.6013 55.3609 87.5079C56.8633 87.2456 58.3737 87.0296 59.8769 86.7715C60.4142 86.6792 60.9385 86.5135 61.4708 86.3898C62.6763 86.1095 64.0093 86.2791 65.0344 85.3524C65.1687 85.231 65.408 85.2039 65.6047 85.1768C67.852 84.8662 69.9071 84.0115 71.8897 82.9575C72.6263 82.566 73.3466 82.1433 74.0669 81.7221C75.795 80.7118 77.6192 79.8292 79.2154 78.6409C80.7777 77.4778 82.115 76.0097 83.5313 74.6548C83.9541 74.2503 84.3035 73.7701 84.6987 73.3357C85.3121 72.6613 85.9996 72.0433 86.5373 71.3141C87.0678 70.5946 87.4377 69.7585 87.9024 68.9881C88.6055 67.8226 89.4063 66.7089 90.0232 65.5004C90.6457 64.2809 91.1772 62.9996 91.5989 61.697C92.1525 59.9867 92.6877 58.2512 92.9932 56.4854C93.2856 54.7957 93.3386 53.0547 93.3769 51.3336C93.4123 49.7414 93.3624 48.1385 93.2088 46.554C93.1116 45.5505 92.5664 44.6019 92.8395 43.5358C92.89 43.3386 92.7794 43.0878 92.7072 42.8739C92.5441 42.3914 92.34 41.9224 92.1861 41.4372C91.9099 40.5669 91.7089 39.6695 91.3854 38.8181C90.8249 37.3433 90.1826 35.8998 89.6068 34.4306C89.5183 34.2047 89.6018 33.9115 89.6057 33.6494C90.458 34.6389 91.3103 35.6284 92.181 36.6706Z" fill="#070C12" fill-opacity="0.3"/>
<path d="M68.5337 15.7324C69.3161 16.1587 70.0984 16.585 70.9343 17.1027C71.0389 17.2309 71.0898 17.2678 71.1407 17.3048C71.1407 17.3048 71.1374 17.2603 71.1375 17.329C71.2431 17.7994 71.3487 18.201 71.4542 18.6027C71.1127 19.4531 70.8291 20.3572 70.7848 21.273C70.7025 22.9727 70.772 24.6793 70.7498 26.3827C70.7451 26.7457 70.6068 27.1053 70.5505 27.4697C70.4705 27.987 70.3874 28.5056 70.3478 29.0268C70.3198 29.3952 70.3617 29.7689 70.3724 30.1402C69.6377 30.0809 69.8573 30.6999 69.7013 31.0654C69.2539 32.1138 68.7839 33.1526 68.2582 34.2069C67.6392 34.4483 67.0487 34.9806 66.649 33.9992C66.6151 33.9159 66.3448 33.8995 66.185 33.9018C65.3887 33.913 64.9505 33.5147 64.9502 32.7581C64.9499 31.8733 64.6387 31.617 63.8737 32.0043C63.0108 32.4412 62.2066 32.6939 61.3744 31.9884C61.344 31.9627 61.2646 31.9947 61.208 31.9998C61.2253 32.0488 61.2426 32.0978 61.2599 32.1467C60.8325 32.3662 60.4051 32.5856 59.9778 32.7361C60.4884 30.8531 60.9988 29.039 61.5193 27.1893C61.7796 27.2989 62.0569 27.4156 62.5427 27.6201C62.4587 26.6937 62.6763 25.9841 63.5005 25.6457C63.5572 25.6224 63.5672 25.4934 63.6058 25.4171C64.1747 24.2914 64.7301 23.1583 65.3307 22.0498C65.42 21.885 65.7549 21.8719 65.9202 21.7254C66.1652 21.5085 66.5203 21.251 66.547 20.9828C66.6335 20.1119 66.9129 19.5786 67.9002 19.5286C68.2055 19.5131 68.5493 19.1559 68.7555 18.869C68.8308 18.7642 68.5229 18.4192 68.4507 18.1664C68.278 17.561 68.4167 17.0929 69.1417 16.8103C68.8978 16.7385 68.6539 16.6668 68.3368 16.5735C68.3978 16.3128 68.4658 16.0226 68.5337 15.7324Z" fill="#8F5C50"/>
<path d="M68.4949 15.6857C68.4658 16.0227 68.3979 16.3129 68.3368 16.5735C68.6539 16.6668 68.8978 16.7386 69.1417 16.8103C68.4167 17.0929 68.278 17.5611 68.4508 18.1665C68.5229 18.4193 68.8308 18.7643 68.7556 18.869C68.5493 19.156 68.2055 19.5132 67.9002 19.5287C66.9129 19.5787 66.6336 20.112 66.547 20.9828C66.5203 21.2511 66.1652 21.5086 65.9202 21.7255C65.7549 21.8719 65.42 21.8851 65.3307 22.0498C64.7302 23.1584 64.1748 24.2915 63.6058 25.4172C63.5672 25.4935 63.5572 25.6225 63.5005 25.6457C62.6763 25.9842 62.4588 26.6937 62.5427 27.6202C62.0569 27.4157 61.7796 27.2989 61.5193 27.1894C60.9989 29.0391 60.4884 30.8532 59.9192 32.7516C59.3786 33.7529 58.8966 34.67 58.3718 35.6261C57.9237 36.283 57.5344 36.9208 56.6335 36.9678C56.5043 36.6831 56.423 36.4063 56.3416 36.1295C57.2166 35.3485 57.6785 34.1927 58.7434 33.5622C59.0417 33.3857 59.1614 32.8879 59.3355 32.5242C60.9767 29.0957 61.0977 25.4708 61.0182 21.7389C60.9618 19.0969 59.8746 16.9599 58.6848 14.8057C57.9211 13.423 56.8566 12.2398 55.4917 11.2891C57.4999 11.7362 59.5994 12.0726 61.5804 12.7537C63.9256 13.5602 66.1686 14.664 68.4949 15.6857Z" fill="#966054"/>
<path d="M34.5771 83.4277C33.7961 83.356 33.015 83.2843 32.1785 83.2395C30.1779 82.2591 28.2328 81.2518 26.2593 80.1503C26.4712 80.0464 26.7403 79.9634 26.9454 80.0437C27.2786 80.1741 27.547 80.4915 27.8835 80.5887C28.8847 80.8778 29.9057 81.0981 30.9248 81.4118C31.0905 81.6073 31.2308 81.7892 31.4133 81.8563C32.4096 82.2221 33.4158 82.561 34.4198 82.9055C34.5539 82.9515 34.6933 82.9933 34.8333 83.0089C35.9331 83.1313 37.05 83.1648 38.1306 83.3807C40.9046 83.9349 43.7011 84.2393 46.5242 84.2851C47.4735 84.3005 48.4255 84.1891 49.3752 84.1217C50.8774 84.0151 52.391 83.9793 53.8771 83.7601C55.3532 83.5424 56.7957 83.1074 58.2627 82.817C60.9291 82.2891 63.5214 81.5322 66.0215 80.4598C67.1333 79.983 68.3228 79.6487 69.3622 79.0502C71.2793 77.9464 73.1689 76.7747 74.9615 75.481C76.4279 74.4227 77.8042 73.2147 79.0959 71.9463C80.3855 70.6799 81.577 69.3011 82.7051 67.8867C83.6102 66.7518 84.3795 65.5048 85.164 64.2788C85.6112 63.58 86.0327 62.8504 86.3503 62.0867C86.8349 60.9216 87.2576 59.727 87.6378 58.5232C88.2353 56.6313 89.0718 54.7988 89.0809 52.7531C89.0864 51.5186 89.157 50.2844 89.2007 49.0501C89.2152 48.6397 89.1022 48.4138 88.6496 48.5717C88.6666 48.1958 88.6836 47.8952 88.7641 47.5894C89.3941 47.217 89.4026 46.9222 88.7095 46.6365C88.5216 44.1756 88.3396 41.7957 88.2226 39.4189C88.8167 39.8062 89.2822 40.2019 89.0525 40.9826C88.9858 41.2095 89.0789 41.4968 89.141 41.7459C89.3835 42.7184 89.8199 43.6791 89.8613 44.6578C89.966 47.1329 89.9237 49.6158 89.88 52.0946C89.8659 52.8938 89.701 53.6973 89.5402 54.4856C89.2704 55.8083 89.0187 57.1416 88.6283 58.4307C88.2658 59.6274 87.7092 60.7638 87.2789 61.9417C86.5911 63.8243 85.6361 65.5631 84.4707 67.1823C83.6676 68.298 82.8522 69.4161 81.9325 70.4339C80.6156 71.8914 79.3573 73.4777 77.7879 74.614C75.2578 76.4456 72.8478 78.5067 69.8983 79.7099C67.9785 80.4931 66.1167 81.4453 64.1515 82.0832C61.9424 82.8003 59.7555 83.6299 57.4004 83.8773C55.4566 84.0815 53.5418 84.7051 51.6018 84.7694C48.2814 84.8795 44.951 84.7083 41.6255 84.6284C41.0248 84.614 40.4241 84.4889 39.829 84.3835C38.0769 84.0734 36.3275 83.7475 34.5771 83.4277Z" fill="#070C12" fill-opacity="0.7"/>
<path d="M9.37843 66.2052C8.15721 62.0303 9.00377 58.1426 11.0504 54.432C11.2183 54.4987 11.372 54.6233 11.4319 54.5881C12.2639 54.0993 12.5215 54.4618 12.5142 55.2796C12.5134 55.372 12.6166 55.4654 12.7411 55.6756C12.9561 55.4405 13.0914 55.2273 13.2827 55.095C13.9682 54.6207 14.0067 53.2713 15.2924 53.5992C15.3357 53.6102 15.4157 53.491 15.4738 53.4281C16.4018 52.4229 17.2812 51.3664 18.2725 50.4281C18.9908 49.7483 19.7838 49.1227 20.9056 49.1264C21.3064 49.1278 21.7037 48.7979 22.1109 48.6408C22.6958 48.4152 23.284 48.1958 23.88 48.0019C24.1063 47.9283 24.3976 48.0012 24.5912 47.8894C25.362 47.4441 26.0995 46.9414 26.8649 46.486C27.0387 46.3826 27.3269 46.2796 27.473 46.3535C28.2058 46.7241 28.8698 46.5534 29.5341 46.2695C29.6369 47.1427 28.8894 47.1978 28.4642 47.5157C26.8596 48.7155 25.2352 49.8889 23.5795 51.0353C23.3929 51.1963 23.2449 51.3941 23.0967 51.5921C23.0963 51.5924 23.0959 51.5932 23.0293 51.5933C22.1697 52.1698 21.2884 52.6587 20.6081 53.3466C19.8988 54.0638 19.263 54.6848 18.2402 54.2792C18.1652 54.8535 18.0978 55.3699 18.0065 56.0689C17.2478 55.4002 16.9544 55.6805 16.6628 56.3058C16.5281 56.5948 16.1119 56.8345 15.7754 56.9326C14.6613 57.2579 13.8189 57.6353 13.153 58.5178C12.224 59.749 10.7895 60.6753 10.6742 62.4311C10.6663 62.5519 10.5069 62.6587 10.4308 62.78C9.95161 63.5431 9.56294 64.31 9.79886 65.2796C9.86484 65.5508 9.61727 65.8982 9.51354 66.2106C9.48351 66.2097 9.45347 66.2087 9.37843 66.2052Z" fill="#B3C2C7"/>
<path d="M89.5841 33.5933C89.6018 33.9109 89.5183 34.2041 89.6068 34.43C90.1826 35.8992 90.8249 37.3427 91.3854 38.8174C91.7089 39.6689 91.9099 40.5663 92.1861 41.4366C92.34 41.9218 92.5441 42.3908 92.7071 42.8733C92.7794 43.0872 92.89 43.338 92.8395 43.5352C92.5664 44.6013 93.1116 45.5498 93.2088 46.5534C93.3624 48.1379 93.4123 49.7408 93.3769 51.333C93.3386 53.0541 93.2856 54.7951 92.9932 56.4848C92.6877 58.2506 92.1525 59.9861 91.5989 61.6963C91.1772 62.999 90.6457 64.2803 90.0232 65.4998C89.4063 66.7082 88.6055 67.822 87.9024 68.9875C87.4377 69.7579 87.0678 70.594 86.5373 71.3135C85.9996 72.0427 85.3121 72.6606 84.6987 73.335C84.3035 73.7695 83.9541 74.2497 83.5313 74.6542C82.115 76.0091 80.7777 77.4772 79.2154 78.6403C77.6192 79.8286 75.795 80.7112 74.0669 81.7215C73.3466 82.1427 72.6263 82.5654 71.8897 82.9569C69.9071 84.0109 67.852 84.8656 65.6047 85.1762C65.408 85.2033 65.1687 85.2304 65.0344 85.3518C64.0093 86.2785 62.6763 86.1089 61.4708 86.3892C60.9385 86.5129 60.4141 86.6786 59.8769 86.7709C58.3737 87.029 56.8633 87.245 55.3609 87.5073C54.8263 87.6007 54.3128 87.8127 53.7788 87.9119C52.9435 88.0672 52.0981 88.167 51.2588 88.3017C50.8194 88.3722 50.3838 88.4667 49.9107 88.61C49.4599 88.6103 49.0448 88.551 48.56 88.406C48.4178 87.7607 48.0697 87.8168 47.6247 87.8378C47.165 87.8595 46.696 87.6869 46.2311 87.5993C46.3837 86.5625 47.2985 87.11 47.5882 87.1827C49.0881 87.5589 50.5701 87.2692 52.0281 87.1578C54.018 87.0057 55.9792 86.5107 57.9635 86.243C60.4946 85.9016 62.9505 85.2919 65.3598 84.4545C67.0048 83.8827 68.7498 83.5357 70.3071 82.7898C72.3453 81.8135 74.3078 80.6394 76.1822 79.372C78.1332 78.0528 80.0612 76.6507 81.7815 75.0508C84.1365 72.8605 86.3344 70.4947 87.7509 67.5232C88.2583 66.4588 89.0332 65.515 89.4833 64.4318C90.2787 62.5175 91.0126 60.5662 91.5944 58.5783C92.0728 56.9436 92.3017 55.2351 92.6215 53.5556C92.6856 53.2185 92.6684 52.8646 92.6763 52.5182C92.7055 51.2296 92.7913 49.9381 92.7346 48.653C92.6946 47.7453 92.4246 46.8502 92.3201 45.9422C92.2142 45.0222 92.2092 44.0907 92.1099 43.1696C92.0772 42.8669 91.8767 42.5849 91.772 42.2867C91.2119 40.6921 90.6688 39.0914 90.0964 37.5012C89.8731 36.8809 89.5944 36.2801 89.3307 35.6748C88.8762 34.632 88.3679 33.6092 87.9816 32.5421C87.8603 32.2069 87.0368 32.2631 87.5557 31.6279C88.255 32.2457 88.9087 32.8917 89.5841 33.5933Z" fill="#070C12" fill-opacity="0.4"/>
<path d="M88.2239 79.8083C87.9929 79.1244 88.3834 78.3254 89.187 78.0451C88.9161 77.9476 88.7373 77.8832 88.5938 77.8315C89.1941 77.0521 89.7733 76.2406 90.4242 75.4913C90.6207 75.265 91.0055 75.1698 91.323 75.0907C91.6143 75.0181 91.9312 75.048 92.2442 75.0324C92.2442 74.8504 92.2764 74.7481 92.2394 74.6898C91.5877 73.6623 91.6752 73.4474 92.8197 73.2036C93.2598 73.1099 93.9675 73.3573 93.9919 72.6472C94.005 72.2658 93.6069 71.8701 93.3265 71.3567C93.5619 71.2146 93.9351 70.9894 94.3117 70.7621C93.7404 69.448 95.1336 68.8706 95.3548 68.0257C95.2171 67.5837 94.9908 67.2335 95.0612 66.9596C95.1139 66.7549 95.5496 66.6488 95.8674 66.469C96.0875 66.0296 96.3579 65.4895 96.7514 64.7039C96.9835 64.0908 96.1664 63.0687 97.1584 62.1939C97.6864 61.7283 97.4607 61.3402 96.5441 60.9826C96.8783 60.6968 97.3665 60.4776 97.4397 60.1621C97.5158 59.8344 97.1907 59.4135 97.0241 58.9906C97.1329 58.9122 97.3099 58.7847 97.6919 58.5095C97.379 58.4011 97.1564 58.3241 96.9857 58.265C97.1082 58.0485 97.124 57.9727 97.1653 57.9544C97.9441 57.6106 97.9784 57.4245 97.5078 56.7037C97.3874 56.5192 97.3812 56.216 97.4165 55.9815C97.557 55.049 97.7597 54.1255 97.8893 53.1918C97.9684 52.6223 97.9505 52.0435 97.2201 52.0544C97.4293 51.642 97.6127 51.2803 97.842 50.8283C97.8696 50.8298 98.0613 50.8404 98.2486 50.8507C98.3534 50.4352 98.4517 50.0452 98.5705 49.5741C98.1785 49.6879 97.8732 49.7765 97.4401 49.9022C97.4718 49.2002 97.4976 48.6287 97.5297 47.9172C97.3014 48.0979 97.0965 48.26 96.8436 48.4602C96.7518 48.1467 96.6684 47.8618 96.5859 47.5801C97.4162 47.0506 97.6215 46.6479 96.9245 46.0493C96.0018 45.2567 96.3546 44.4906 96.5328 43.5684C97.2905 45.2353 98.1315 46.9464 98.7628 48.7316C99.588 51.0654 99.9924 53.5089 99.9988 55.9882C100.005 58.5049 100.012 61.0306 99.2142 63.4722C98.9573 64.2581 98.7961 65.0752 98.5273 65.98C98.1671 66.7841 97.8628 67.4831 97.5772 68.1897C97.3788 68.6806 97.2063 69.182 97.0222 69.6786C97.0222 69.6786 97.0265 69.6846 96.9636 69.6949C96.7119 70.1042 96.5232 70.5032 96.3345 70.9022C96.3345 70.9022 96.3052 70.9832 96.2443 71.0441C96.0109 71.4491 95.8384 71.7932 95.6658 72.1373C95.6658 72.1373 95.6307 72.1976 95.5628 72.2423C95.4198 72.3985 95.3446 72.51 95.2694 72.6215C95.2194 72.706 95.1695 72.7905 95.0538 72.9492C94.799 73.1927 94.5803 73.3388 94.4264 73.5356C93.9926 74.0905 93.6005 74.6781 93.164 75.2306C92.6052 75.9378 92.0191 76.6234 91.4447 77.3183C90.5619 78.1262 89.6791 78.934 88.688 79.7733C88.4611 79.806 88.3425 79.8071 88.2239 79.8083Z" fill="#070C12" fill-opacity="0.1"/>
<path d="M68.3228 34.1952C68.7839 33.1526 69.2539 32.1139 69.7013 31.0654C69.8573 30.7 69.6377 30.081 70.3724 30.1403C70.3617 29.7689 70.3198 29.3952 70.3478 29.0268C70.3874 28.5056 70.4705 27.987 70.5505 27.4697C70.6068 27.1054 70.7451 26.7457 70.7498 26.3827C70.772 24.6793 70.7026 22.9727 70.7848 21.273C70.8291 20.3573 71.1127 19.4531 71.4543 18.6027C71.3487 18.2011 71.2431 17.7994 71.1596 17.3262C71.853 17.7572 72.5245 18.2597 73.1995 18.8124C73.41 19.7076 73.617 20.5528 73.867 21.4934C73.9504 21.6803 73.9907 21.7718 74.0387 21.9265C74.1146 22.2326 74.1829 22.4756 74.2498 22.7701C74.2968 22.9065 74.3451 22.9913 74.3918 23.0787C74.3901 23.0814 74.3852 23.0859 74.3838 23.1608C74.5072 25.0324 74.6319 26.829 74.7524 28.6844C74.7523 28.8213 74.7566 28.8996 74.7372 29.037C74.6818 29.3478 74.6498 29.5994 74.608 29.9242C74.593 30.2922 74.5878 30.5871 74.5522 30.909C74.4851 30.9764 74.455 31.0213 74.3836 31.1153C74.3088 31.421 74.2817 31.682 74.2491 32.0084C74.1836 32.3161 74.1237 32.5586 74.0231 32.8331C73.9535 32.9622 73.9246 33.0591 73.8926 33.2191C73.8832 33.4085 73.8768 33.5348 73.8089 33.6674C73.4546 33.9257 73.0904 34.1303 72.8855 34.4403C72.5627 34.9288 72.3288 35.4131 71.6329 34.9441C71.539 34.8808 71.2783 34.9506 71.1672 35.0444C69.8924 36.1204 68.6326 37.2141 67.3639 38.2974C67.3055 38.3472 67.2005 38.3424 67.1255 38.3032C67.4386 37.7964 67.7391 37.3466 68.0495 36.9037C68.3131 36.5276 68.4996 36.1651 67.9575 35.7681C67.6693 36.1202 67.4066 36.4412 67.1438 36.7623C67.1034 36.7278 67.0629 36.6933 67.0224 36.6588C67.4559 35.8376 67.8893 35.0164 68.3228 34.1952Z" fill="#7C544D"/>
<path d="M88.7005 47.5948C88.6835 47.8954 88.6666 48.196 88.6216 48.6326C88.1003 50.986 87.6071 53.2034 87.0702 55.4643C85.3392 60.2433 82.8394 64.4791 79.2755 68.0524C78.0789 69.2521 76.8465 70.4162 75.5762 71.62C75.3962 71.7153 75.2595 71.7729 75.1462 71.8608C71.9058 74.3739 68.3788 76.3862 64.571 77.9047C60.9347 79.3549 57.1922 80.4426 53.3148 80.996C51.1763 81.3012 49.0195 81.4985 46.8646 81.6586C45.9596 81.7258 45.0382 81.5706 44.1292 81.4468C44.1381 81.1911 44.1422 81.0051 44.146 80.8184C44.1456 80.8177 44.1439 80.8162 44.2023 80.818C44.3386 80.8213 44.4165 80.8227 44.4944 80.8241C47.0459 80.7022 49.5973 80.5802 52.2275 80.4556C53.0935 80.285 53.894 80.163 54.6657 79.941C57.4918 79.1277 60.3504 78.399 63.1148 77.4094C65.288 76.6315 67.4153 75.6498 69.4295 74.5207C72.8607 72.5971 76.0068 70.2577 78.626 67.2791C79.7103 66.0461 80.8262 64.8358 81.8325 63.5412C82.5507 62.6172 83.1061 61.5672 83.7414 60.578C85.0397 58.5561 85.8644 56.3107 86.5614 54.0472C87.1528 52.1265 87.5076 50.115 87.7726 48.1179C87.9561 46.7348 87.8397 45.307 87.8032 43.9006C87.7253 40.8916 87.2468 37.9443 86.1227 35.1434C85.344 33.203 84.4298 31.3169 83.5767 29.4063C83.4487 29.1196 83.3239 28.8315 83.1549 28.5003C83.1121 28.4565 83.1127 28.457 83.1127 28.457C82.7887 28.212 82.5014 27.9536 82.7694 27.4345C82.8204 27.4131 82.8642 27.4526 82.9309 27.5314C83.9754 29.3368 84.9969 31.103 86.0668 32.9814C86.796 35.201 87.4768 37.3085 88.1577 39.416C88.3396 41.7959 88.5216 44.1758 88.697 46.7091C88.6938 47.1066 88.6971 47.3507 88.7005 47.5948Z" fill="#070C12"/>
<path d="M9.52325 66.2618C9.61727 65.899 9.86483 65.5516 9.79886 65.2804C9.56293 64.3108 9.9516 63.5439 10.4308 62.7808C10.5069 62.6595 10.6663 62.5528 10.6742 62.4319C10.7895 60.6761 12.224 59.7498 13.153 58.5187C13.8189 57.6361 14.6613 57.2587 15.7754 56.9335C16.1119 56.8353 16.528 56.5956 16.6628 56.3066C16.9544 55.6813 17.2478 55.401 18.0065 56.0697C18.0978 55.3707 18.1652 54.8543 18.2402 54.28C19.263 54.6856 19.8988 54.0646 20.6081 53.3474C21.2883 52.6596 22.1697 52.1706 23.0201 51.6533C22.5541 52.2768 22.0479 52.8585 21.5031 53.4016C20.6317 54.2703 19.6971 55.0787 18.8638 55.9815C18.4242 56.4578 18.1424 57.0799 17.7701 57.6664C17.9007 57.8276 18.0374 57.9963 18.1936 58.1892C17.2606 58.3499 16.8099 58.9762 16.8268 59.8634C16.84 60.558 16.7486 61.2546 16.7123 61.8175C16.2331 61.9717 15.8095 61.982 15.7118 62.1657C15.5073 62.5502 15.4459 63.0215 15.3767 63.4652C15.1944 64.6337 15.0394 65.8064 14.8736 66.9774C14.8058 66.9692 14.7381 66.9611 14.6704 66.953C14.6704 66.7447 14.6704 66.5363 14.6704 66.3425C14.32 66.3858 14.0154 66.4367 13.7087 66.4576C13.4276 66.4768 13.1438 66.4748 12.8621 66.4613C12.6058 66.449 12.2123 66.2963 12.1246 66.4044C11.9543 66.6143 11.9077 66.9631 11.9028 67.2558C11.8993 67.4661 12.0469 67.6788 12.1477 67.9449C11.8885 68.0733 11.6631 68.1849 11.3869 68.2676C10.792 67.6779 10.2481 67.1171 9.7041 66.5563C9.64706 66.4749 9.59002 66.3935 9.52325 66.2618ZM16.0594 60.8645C16.0594 61.0477 16.0594 61.231 16.0594 61.4142C16.1812 61.3725 16.303 61.3308 16.4248 61.2891C16.3297 61.1189 16.2347 60.9486 16.0594 60.8645Z" fill="#A9BEC5"/>
<path d="M30.919 81.3451C29.9057 81.0979 28.8847 80.8777 27.8835 80.5886C27.547 80.4914 27.2786 80.174 26.9454 80.0435C26.7403 79.9632 26.4712 80.0462 26.2245 80.1031C23.8909 78.507 21.5639 76.8638 19.3022 75.1533C20.2582 75.5333 21.1489 75.9806 22.0801 76.4781C23.1383 76.9938 24.1281 77.5432 25.1839 77.8938C25.8248 78.1067 26.5678 78.0121 27.3248 78.0595C27.5732 78.1309 27.7617 78.1984 27.9541 78.3238C27.9597 78.4992 27.9613 78.6166 27.8938 78.7335C27.179 78.628 26.5354 78.5024 25.8859 78.434C25.7472 78.4194 25.5866 78.6126 25.4361 78.71C25.5488 78.8105 25.645 78.9527 25.7768 79.0046C26.5247 79.2992 27.2851 79.5622 28.0332 79.8563C28.5069 80.0425 28.9782 80.2418 29.4296 80.4757C29.94 80.7401 30.427 81.05 30.9231 81.341C30.9221 81.342 30.919 81.3451 30.919 81.3451Z" fill="#070C12"/>
<path d="M22.0396 76.4279C21.1489 75.9806 20.2582 75.5333 19.3031 75.0932C19.2387 75.1003 19.2495 75.0871 19.2347 75.0402C19.1155 74.9653 19.0111 74.9373 18.9067 74.9092C18.9067 74.9092 18.9184 74.9054 18.9032 74.863C18.8269 74.7918 18.766 74.7632 18.705 74.7345C17.4393 73.8055 16.1735 72.8763 14.8961 71.8789C14.8845 71.8105 14.9187 71.774 14.983 71.7776C15.5446 72.0578 16.0465 72.3264 16.5383 72.6126C17.4472 73.1415 18.3502 73.6807 19.2876 74.2662C20.1711 74.8016 21.0228 75.2865 21.9118 75.797C22.02 75.9202 22.0908 76.0179 22.1651 76.159C22.1255 76.2775 22.0826 76.3527 22.0396 76.4279Z" fill="#070C12"/>
<path d="M44.0974 10.147C43.2523 10.1916 42.3568 10.1916 41.4613 10.1916C41.4614 10.2157 41.4615 10.2398 41.4616 10.2639C42.0205 10.3457 42.5794 10.4275 43.2077 10.5636C43.2761 10.649 43.2752 10.68 43.1931 10.7112C41.9493 10.7906 40.6778 10.3658 39.7299 11.4408C39.7299 11.4408 39.6741 11.4322 39.6456 11.384C39.5601 11.3033 39.5031 11.2708 39.4461 11.2383C39.2698 11.045 39.0934 10.8517 38.8987 10.6037C39.79 10.3663 40.6928 10.1087 41.6115 10.0235C42.414 9.94902 43.2344 10.0686 44.0974 10.147Z" fill="#DAC9BC"/>
<path d="M40.3613 86.4337C40.4844 86.2826 40.6904 86.0502 40.8127 86.0881C41.81 86.3975 42.7935 86.7526 43.7749 87.111C43.8512 87.1388 43.88 87.2964 43.9174 87.4649C42.7377 87.1833 41.5715 86.8305 40.3613 86.4337Z" fill="#070C12" fill-opacity="0.5"/>
<path d="M9.70889 66.6191C10.2481 67.117 10.7921 67.6778 11.4168 68.3172C11.7694 68.706 12.0414 69.0161 12.2458 69.3309C12.1334 69.3383 12.0884 69.3409 12.0434 69.3435C11.2668 68.4563 10.4902 67.5692 9.70889 66.6191Z" fill="#83A2B3"/>
<path opacity="0.4" d="M46.188 87.5995C46.696 87.687 47.165 87.8596 47.6247 87.8379C48.0697 87.8169 48.4178 87.7608 48.4931 88.386C47.5953 88.3242 46.6945 88.1969 45.7774 87.9756C45.8605 87.7874 45.9597 87.693 46.059 87.5986C46.059 87.5986 46.145 87.5995 46.188 87.5995Z" fill="#070C12" fill-opacity="0.4"/>
<path opacity="0.4" d="M46.0149 87.5509C45.9597 87.693 45.8605 87.7874 45.732 87.9244C45.2326 87.8505 44.7625 87.7339 44.2495 87.5703C44.7947 87.5166 45.3827 87.5099 46.0149 87.5509Z" fill="#070C12" fill-opacity="0.4"/>
<path d="M50.0307 10.3041C49.0056 10.3108 47.9609 10.2516 46.837 10.1807C47.8422 10.192 48.9266 10.215 50.0307 10.3041Z" fill="#DAC9BC"/>
<path d="M13.7108 70.8846C13.3127 70.5255 12.9146 70.1666 12.4947 69.7521C12.473 69.6966 12.4807 69.6889 12.5439 69.6826C13.0379 70.0233 13.4688 70.3702 13.8624 70.738C13.7771 70.7918 13.739 70.8337 13.7108 70.8846Z" fill="#78838A"/>
<path d="M13.7439 70.9307C13.739 70.8335 13.777 70.7916 13.91 70.7656C14.2454 70.9893 14.496 71.2059 14.7456 71.4665C14.7453 71.5395 14.7459 71.5688 14.724 71.6208C14.7016 71.6436 14.6616 71.6937 14.6616 71.6937C14.3668 71.4548 14.0719 71.2159 13.7439 70.9307Z" fill="#6F7A81"/>
<path d="M45.8315 10.1317C45.5276 10.1809 45.1732 10.1904 44.7433 10.191C45.0388 10.152 45.4099 10.122 45.8315 10.1317Z" fill="#DAC9BC"/>
<path d="M77.0703 21.4817C76.9456 21.4783 76.7912 21.4364 76.6646 21.3545C76.8085 21.3574 76.9245 21.4003 77.0703 21.4817Z" fill="#0C1921"/>
<path d="M77.3675 22.0232C77.282 21.9126 77.199 21.7995 77.1492 21.6333C77.2443 21.6272 77.3062 21.6741 77.3758 21.8127C77.3808 21.9415 77.378 21.9788 77.3752 22.0161C77.3752 22.0161 77.3701 22.0208 77.3675 22.0232Z" fill="#0C1921"/>
<path d="M12.0766 69.3898C12.0884 69.3403 12.1334 69.3377 12.2862 69.365C12.4228 69.4928 12.4518 69.5907 12.4807 69.6885C12.4807 69.6885 12.473 69.6962 12.469 69.7002C12.3467 69.6149 12.2283 69.5258 12.0766 69.3898Z" fill="#78838A"/>
<path d="M18.9328 74.9616C19.011 74.9373 19.1154 74.9653 19.2414 75.0453C19.1617 75.0696 19.0603 75.0418 18.9328 74.9616Z" fill="#3B4551"/>
<path d="M77.4296 22.0178C77.378 21.9787 77.3808 21.9414 77.3908 21.8485C77.4843 21.8406 77.5706 21.8883 77.6795 21.9806C77.6295 22.0234 77.5568 22.0215 77.4296 22.0178Z" fill="#152A3A"/>
<path d="M18.7256 74.7802C18.766 74.763 18.8269 74.7916 18.9045 74.8688C18.8628 74.8869 18.8045 74.8565 18.7256 74.7802Z" fill="#3B4551"/>
<path d="M14.8675 71.8287C14.7998 71.8242 14.7543 71.7937 14.6877 71.7246C14.6616 71.6935 14.7016 71.6435 14.7622 71.6396C14.8702 71.6711 14.9022 71.7171 14.9187 71.7739C14.9187 71.7739 14.8845 71.8104 14.8675 71.8287Z" fill="#6F7A81"/>
<path d="M71.1368 17.252C71.0898 17.2679 71.0389 17.231 70.9669 17.1512C71.0081 17.1386 71.0704 17.1689 71.1368 17.252Z" fill="#7C544D"/>
<path d="M39.7512 11.4983C40.6778 10.3652 41.9493 10.79 43.1775 10.774C42.7993 10.97 42.3395 11.066 41.9175 11.249C41.6513 11.3644 41.4415 11.61 41.2064 11.7972C41.7737 12.4767 41.8525 13.2239 41.8652 14.1156C41.8746 14.7782 42.5515 15.4555 43.0025 16.0742C43.1548 16.2832 43.5326 16.3201 43.7955 16.4583C44.0269 16.5801 44.4032 16.705 44.4339 16.8783C44.5304 17.4228 44.5024 17.9909 44.4919 18.5493C44.4911 18.5904 44.2209 18.6925 44.1155 18.655C43.1881 18.3247 43.0854 19.004 43.1296 19.5701C43.1928 20.3803 43.4457 21.1743 43.5887 21.9804C43.6353 22.2428 43.603 22.522 43.5864 22.7923C43.5499 23.3846 43.5005 23.9762 43.451 24.6391C45.165 24.2079 43.9139 22.4833 45.0859 21.9282C45.0984 22.5766 44.9741 23.184 44.8387 23.789C44.5068 25.2724 44.2086 26.7649 43.8183 28.2328C43.6293 28.9434 43.2263 29.5943 42.9869 30.295C42.6461 31.2925 42.3393 32.3109 43.613 32.9566C43.7228 33.0122 43.7648 33.256 43.7878 33.4195C43.9478 34.5617 42.8206 36.6262 41.8225 37.2312C41.3489 37.5183 40.9894 37.9934 40.4674 38.4884C41.0322 38.5425 41.337 38.5718 41.6872 38.6053C41.2775 39.1401 40.9728 39.5379 40.6671 39.9364C40.6662 39.9371 40.6648 39.939 40.5947 39.9386C40.0785 40.0618 39.6325 40.1855 39.1165 40.3285C39.4095 40.7414 39.6243 41.0442 39.8057 41.3948C39.5493 41.5837 39.3265 41.725 39.0542 41.842C38.8674 41.7745 38.7299 41.7311 38.5208 41.6849C37.9624 41.6941 37.475 41.6939 36.989 41.7206C35.992 41.7755 35.0842 41.1492 34.9639 40.2005C34.8891 39.6105 34.9176 38.9864 35.0249 38.4005C35.127 37.8424 35.0668 37.4942 34.5268 37.1948C33.7518 36.7651 33.7338 36.2509 34.262 35.5183C34.5469 35.123 34.7078 34.6384 34.9246 34.1941C36.4575 32.3593 38.1597 30.6384 39.4879 28.6658C42.205 24.6301 42.9942 20.1522 41.6387 15.4386C41.2474 14.0781 40.407 12.8468 39.7512 11.4983Z" fill="#E0C5B4"/>
<path d="M29.5339 46.2036C28.8698 46.5544 28.2058 46.725 27.473 46.3544C27.327 46.2806 27.0387 46.3835 26.8649 46.487C26.0995 46.9424 25.362 47.445 24.5912 47.8903C24.3976 48.0021 24.1063 47.9292 23.88 48.0029C23.284 48.1968 22.6959 48.4161 22.1109 48.6417C21.7037 48.7988 21.3064 49.1287 20.9056 49.1274C19.7838 49.1236 18.9908 49.7492 18.2725 50.4291C17.2813 51.3673 16.4019 52.4238 15.4738 53.429C15.4157 53.4919 15.3357 53.6112 15.2925 53.6001C14.0067 53.2723 13.9682 54.6216 13.2827 55.0959C13.0915 55.2282 12.9561 55.4414 12.7411 55.6766C12.6167 55.4663 12.5134 55.373 12.5142 55.2806C12.5215 54.4627 12.2639 54.1003 11.4319 54.589C11.372 54.6242 11.2183 54.4996 11.0953 54.3904C12.1045 52.832 12.999 51.2231 14.1734 49.8543C17.223 46.2998 21.0324 43.6674 25.1185 41.3818C25.4501 41.8511 25.7023 42.2762 25.9891 42.6765C26.151 42.9026 26.3458 43.121 26.5688 43.2839C26.905 43.5293 27.2697 43.8889 27.6384 43.9092C28.9777 43.983 30.324 43.9472 31.6672 43.9251C31.9468 43.9205 32.2331 43.822 32.5016 43.7258C33.4468 43.3869 34.3743 42.995 35.3301 42.6909C36.1686 42.4241 37.0359 42.2482 37.878 42.093C37.6436 42.3112 37.4383 42.5025 37.197 42.6204C36.1979 43.1086 35.1896 43.5781 34.1815 44.0479C32.6337 44.7693 31.0832 45.4853 29.5339 46.2036Z" fill="#CFCBC5"/>
<path d="M37.8905 42.0319C37.0359 42.2479 36.1685 42.4238 35.3301 42.6906C34.3743 42.9947 33.4468 43.3866 32.5016 43.7255C32.2331 43.8217 31.9468 43.9202 31.6671 43.9248C30.3239 43.9468 28.9777 43.9827 27.6383 43.9089C27.2697 43.8885 26.905 43.529 26.5688 43.2835C26.3457 43.1207 26.151 42.9023 25.989 42.6762C25.7022 42.2759 25.4501 41.8508 25.1787 41.367C25.3715 41.1432 25.5691 40.9885 25.8491 40.846C26.0879 40.7248 26.2442 40.5914 26.4004 40.458C27.7258 39.5372 29.0739 38.6469 30.3708 37.6875C31.8777 36.5728 33.3397 35.3976 34.8729 34.2217C34.7078 34.6391 34.5469 35.1237 34.2619 35.519C33.7338 36.2516 33.7518 36.7658 34.5268 37.1955C35.0668 37.4949 35.127 37.8431 35.0249 38.4012C34.9176 38.9871 34.8891 39.6112 34.9639 40.2012C35.0842 41.1499 35.992 41.7762 36.989 41.7213C37.4749 41.6946 37.9624 41.6948 38.483 41.7283C38.3081 41.8598 38.0993 41.9458 37.8905 42.0319Z" fill="#DAC9BC"/>
<path d="M26.3457 40.4629C26.2442 40.5913 26.0879 40.7247 25.896 40.8169C26.0039 40.6731 26.1475 40.5705 26.3457 40.4629Z" fill="#CFCBC5"/>
<path d="M39.468 11.2736C39.5031 11.2705 39.5601 11.303 39.62 11.3718C39.5703 11.3863 39.5259 11.3533 39.468 11.2736Z" fill="#E0C5B4"/>
<path d="M83.1119 28.4561C83.1117 28.4557 83.0741 28.519 83.0741 28.519C83.0741 28.519 83.0773 28.473 83.095 28.4649C83.1127 28.4568 83.1122 28.4564 83.1119 28.4561Z" fill="#070C12"/>
<path d="M40.6681 39.9361C40.9728 39.5384 41.2775 39.1406 41.6872 38.6058C41.337 38.5723 41.0322 38.543 40.4674 38.4889C40.9894 37.9939 41.3489 37.5188 41.8225 37.2317C42.8206 36.6267 43.9478 34.5622 43.7878 33.42C43.7648 33.2565 43.7228 33.0127 43.613 32.9571C42.3393 32.3114 42.6461 31.293 42.9869 30.2955C43.2263 29.5948 43.6293 28.9439 43.8183 28.2333C44.2086 26.7653 44.5068 25.2729 44.8387 23.7895C44.9741 23.1845 45.0984 22.577 45.0859 21.9287C43.9139 22.4838 45.165 24.2084 43.451 24.6396C43.5005 23.9767 43.5499 23.3851 43.5864 22.7928C43.603 22.5225 43.6353 22.2433 43.5887 21.9809C43.4457 21.1748 43.1928 20.3808 43.1296 19.5706C43.0854 19.0045 43.1881 18.3252 44.1155 18.6555C44.2209 18.693 44.4911 18.5908 44.4919 18.5498C44.5024 17.9914 44.5304 17.4233 44.4339 16.8788C44.4032 16.7055 44.0269 16.5806 43.7955 16.4588C43.5326 16.3206 43.1548 16.2837 43.0025 16.0747C42.5515 15.456 41.8746 14.7787 41.8652 14.1161C41.8525 13.2243 41.7737 12.4772 41.2064 11.7977C41.4415 11.6105 41.6513 11.3649 41.9175 11.2495C42.3395 11.0665 42.7993 10.9705 43.2586 10.7744C43.2752 10.68 43.2761 10.6489 43.2793 10.5713C45.5532 11.5747 47.2433 13.2414 48.5582 15.3544C49.8669 17.4575 50.4734 19.7831 50.5059 22.1898C50.5434 24.9652 50.1092 27.7041 48.9675 30.2968C47.0942 34.5504 44.103 37.9012 40.6089 40.8637C40.5032 40.9533 40.431 41.0824 40.2715 41.2578C40.0796 41.3309 39.9594 41.3392 39.8392 41.3476C39.6243 41.0447 39.4095 40.7419 39.1165 40.329C39.6325 40.186 40.0785 40.0623 40.6033 39.9564C40.682 39.9741 40.7295 39.9761 40.7295 39.9761L40.6681 39.9361Z" fill="#E2BFAD"/>
<path d="M39.8057 41.3957C39.9594 41.3397 40.0796 41.3313 40.2604 41.3152C42.476 40.5006 44.6455 39.73 46.7805 38.8736C48.0789 38.3529 49.295 37.6221 50.603 37.1325C51.5347 36.7837 52.5791 36.7473 53.5339 36.4467C54.431 36.1642 55.3184 36.0237 56.2946 36.1123C56.4229 36.407 56.5043 36.6838 56.6176 37.0239C56.4382 37.4858 56.2866 37.9344 56.0037 38.2735C55.3251 39.0867 54.5849 39.8486 53.8106 40.6405C53.4652 40.8312 53.1756 41.0077 52.893 41.195C51.4259 42.1675 49.9606 43.1427 48.4396 44.1415C46.5104 45.03 44.6387 45.8995 42.761 46.7556C41.7137 47.2331 40.6511 47.6773 39.6089 48.1652C39.459 48.2355 39.3848 48.4676 39.2006 48.6271C38.8257 48.6339 38.5256 48.6385 38.1926 48.6026C38.0115 48.5898 37.8633 48.6174 37.6633 48.6489C37.5281 48.7083 37.4447 48.7636 37.3043 48.8146C37.1392 48.7592 37.0312 48.708 36.8794 48.6362C37.1812 48.4398 37.4056 48.2937 37.7371 48.078C37.0811 47.9622 36.5641 47.871 36.1139 47.7916C36.1817 47.3297 36.0978 46.783 36.3289 46.5531C36.8627 46.0222 36.4712 45.6818 36.2524 45.2768C36.1039 45.0021 35.9378 44.737 35.8188 44.4236C36.9399 43.5421 38.0218 42.7047 39.1036 41.8672C39.3264 41.7259 39.5493 41.5847 39.8057 41.3957Z" fill="#938C89"/>
<path d="M44.4948 80.7553C44.4165 80.8228 44.3386 80.8214 44.2016 80.7469C44.6555 77.259 46.4003 74.4165 48.3494 71.6758C48.9277 70.8626 49.537 70.0617 50.2135 69.3305C51.0807 68.3934 52.0345 67.5368 52.9428 66.6373C53.6617 65.9255 54.3298 65.1572 55.0903 64.494C55.9835 63.7152 56.9678 63.042 57.8843 62.2885C59.1325 61.2623 60.3445 60.1922 61.5886 59.161C64.1542 57.0346 66.4738 54.6536 68.5079 52.0312C69.9962 50.1124 71.2619 48.0169 72.5734 45.966C74.0037 43.7292 74.728 41.2165 75.3075 38.6509C75.5226 37.6987 75.8396 36.7696 76.0265 36.1203C75.9186 33.6083 75.8208 31.3296 75.723 29.051C75.8116 29.047 75.9002 29.043 75.9888 29.039C75.9888 30.3801 75.9888 31.7212 75.9888 33.0623C76.0766 33.0576 76.1645 33.0529 76.2524 33.0481C76.1193 30.6961 75.9862 28.3441 75.8531 25.992C75.7214 25.9941 75.5897 25.9961 75.4579 25.9982C75.4579 26.4118 75.4579 26.8254 75.3939 27.2192C75.2564 26.7492 75.1829 26.299 75.1095 25.7903C75.1099 25.654 75.1103 25.576 75.1511 25.4563C75.1084 25.2112 75.0254 25.008 74.9409 24.7592C74.9383 24.6834 74.9372 24.653 74.936 24.5585C74.9354 24.3658 74.935 24.2372 74.9345 24.0435C74.9338 23.8482 74.9332 23.718 74.9561 23.5348C74.9338 23.1112 74.8638 22.7416 74.8481 22.3697C74.8231 21.7749 74.5624 21.6143 74.0311 21.8639C73.9907 21.7724 73.9504 21.6809 73.9111 21.5373C74.1793 21.1118 74.4465 20.7383 74.7972 20.248C75.8443 21.786 77.9113 22.6133 77.5468 24.9422C78.1676 25.7767 77.6579 27.2072 79.0643 27.6901C79.3137 27.7757 79.3002 28.6274 79.4296 29.2246C78.3784 29.1372 78.0952 29.6505 78.0785 30.3633C78.0691 30.7626 78.2305 31.1738 78.1798 31.5619C78.1212 32.0106 78.0204 32.5288 77.7463 32.8566C77.3372 33.3458 77.2724 33.7098 77.6452 34.2314C78.0372 34.7799 78.0578 35.2893 77.3038 35.6169C77.1077 35.7021 76.8834 35.9625 76.8598 36.1643C76.7442 37.1565 76.7399 38.1629 76.5974 39.1501C76.5236 39.6618 76.3101 40.1834 76.0418 40.6296C75.7067 41.1869 75.1317 41.5633 75.3929 42.4098C75.5141 42.8029 75.2614 43.4068 75.0048 43.8028C74.2983 44.893 74.0303 46.0935 73.8816 47.3474C73.8624 47.5096 73.8047 47.7589 73.6962 47.8045C72.7107 48.218 72.844 49.0616 72.8402 49.8716C72.839 50.1286 72.7426 50.3851 72.6423 50.8722C72.3139 50.2666 72.1086 49.888 71.8806 49.4676C71.437 49.7337 71.081 49.9473 70.5341 50.2755C70.9215 50.8349 71.2396 51.4804 71.7286 51.9468C72.2005 52.3972 73.0632 52.4325 73.1431 53.3064C73.5309 53.258 73.9188 53.2096 74.2834 53.164C74.2533 53.9154 73.9406 54.2021 72.7994 54.1947C72.0291 54.1898 71.2053 54.1029 70.934 55.0359C70.8007 55.4946 70.8939 56.0305 70.942 56.5259C70.9699 56.8129 71.2444 57.2941 71.1804 57.3354C70.8381 57.5563 70.4309 57.6899 70.0318 57.8031C69.8686 57.8493 69.6694 57.7684 69.2989 57.7216C70.0815 58.5997 69.7498 59.0876 69.0818 59.677C68.3202 60.349 67.7766 61.2613 67.0623 61.9953C65.99 63.0972 64.8521 64.1354 63.7403 65.1987C63.6152 65.3183 63.3961 65.4036 63.3595 65.5416C63.0691 66.636 61.9668 66.9567 61.3024 67.6922C60.9559 68.0757 60.3158 68.2209 59.7843 68.4042C58.8978 68.7101 58.2259 69.1033 58.841 70.2799C57.7566 70.2822 57.5172 71.0624 57.3746 71.7258C57.125 72.8877 56.093 73.0948 55.3151 73.4374C54.6722 73.7206 54.5282 73.9761 54.6171 74.5589C54.8047 75.7872 54.2315 76.2127 53.0076 76.1005C52.083 76.0158 51.1285 76.3287 50.1825 76.3845C49.3865 76.4314 48.8538 76.5998 48.9676 77.5749C48.9884 77.753 48.6509 78.1115 48.4406 78.1446C48.1448 78.1913 47.6593 78.1128 47.5261 77.9099C47.1262 77.3004 46.5035 77.1365 46.0333 77.4184C45.6675 77.6378 45.4861 78.2973 45.387 78.794C45.2738 79.3619 45.529 80.0503 44.6502 80.2271C44.5709 80.243 44.5455 80.5269 44.4948 80.7553Z" fill="#162D3F"/>
<path d="M88.2226 39.4186C87.4768 37.3079 86.796 35.2004 86.1003 33.0317C86.2545 33.0015 86.4675 32.9775 86.5856 33.0721C87.5882 33.8751 87.7436 35.1277 88.2196 36.2117C88.3344 36.4732 88.416 36.7824 88.6096 36.9694C88.9916 37.338 89.2131 37.691 89.0526 38.2545C88.992 38.4672 89.0979 38.7754 89.2215 38.9848C90.0765 40.434 90.3977 42.038 90.585 43.6727C90.7869 45.4339 91.0274 47.1993 91.0706 48.9672C91.1055 50.3999 90.931 51.8467 90.7437 53.2734C90.5342 54.8693 90.3498 56.4929 89.89 58.0251C89.384 59.7109 88.62 61.3259 87.8884 62.9354C87.2322 64.3791 86.5982 65.8614 85.7189 67.1682C84.4906 68.9937 83.1364 70.7558 81.6621 72.3878C80.372 73.816 78.9018 75.102 77.3987 76.3109C76.1618 77.3055 74.7981 78.1607 73.4217 78.9589C71.6571 79.9823 69.8805 81.024 68.0035 81.8036C66.1229 82.5848 64.0935 82.9989 62.1631 83.6711C59.1987 84.7034 56.0861 84.936 53.028 85.4493C51.7267 85.6677 50.3784 85.7003 49.0548 85.6702C46.6131 85.6146 44.1602 85.5699 41.7381 85.2927C39.8645 85.0782 38.0273 84.5306 36.1815 84.0989C35.6438 83.9732 35.132 83.7372 34.5927 83.4896C36.3275 83.7471 38.0769 84.073 39.829 84.3832C40.4241 84.4885 41.0249 84.6136 41.6255 84.6281C44.951 84.708 48.2814 84.8791 51.6018 84.7691C53.5418 84.7048 55.4566 84.0812 57.4004 83.877C59.7555 83.6295 61.9424 82.7999 64.1515 82.0829C66.1167 81.4449 67.9785 80.4928 69.8983 79.7096C72.8478 78.5063 75.2578 76.4453 77.7879 74.6136C79.3573 73.4774 80.6156 71.8911 81.9326 70.4336C82.8522 69.4158 83.6676 68.2977 84.4707 67.182C85.6361 65.5628 86.5911 63.8239 87.2789 61.9413C87.7092 60.7635 88.2659 59.627 88.6283 58.4304C89.0187 57.1412 89.2704 55.8079 89.5402 54.4852C89.701 53.6969 89.8659 52.8935 89.88 52.0942C89.9237 49.6155 89.966 47.1325 89.8613 44.6575C89.8199 43.6787 89.3835 42.718 89.141 41.7456C89.0789 41.4965 88.9858 41.2091 89.0526 40.9822C89.2822 40.2015 88.8167 39.8058 88.2226 39.4186Z" fill="#070C12" fill-opacity="0.6"/>
<path d="M87.7756 80.107C87.6243 80.3491 87.4202 80.5611 87.1647 80.795C87.1132 80.5154 87.1132 80.214 87.1132 79.791C87.3989 79.925 87.5609 80.001 87.7756 80.107Z" fill="#070C12" fill-opacity="0.1"/>
<path d="M68.2583 34.2069C67.8893 35.0164 67.4559 35.8376 67.0224 36.6587C67.0629 36.6932 67.1034 36.7277 67.1439 36.7622C67.4066 36.4412 67.6693 36.1201 67.9575 35.7681C68.4996 36.165 68.3131 36.5276 68.0495 36.9037C67.7391 37.3466 67.4386 37.7964 67.0731 38.3351C66.8131 38.814 66.6139 39.201 66.3483 39.5874C66.0056 39.7506 65.7084 39.8872 65.4572 40.0828C64.4908 40.8354 63.5391 41.6068 62.5181 42.3736C62.0914 42.6631 61.7285 42.9502 61.3662 43.2388C61.3667 43.2403 61.3627 43.2403 61.2952 43.2409C60.7432 43.3296 60.2588 43.4179 59.658 43.5273C60.205 41.8797 60.2192 41.0303 59.8384 39.3528C59.7891 39.1358 59.8734 38.8913 59.8451 38.6659C59.8011 38.3149 59.7438 37.9597 59.6374 37.6236C59.4859 37.1447 59.1911 36.6932 59.1307 36.2084C59.0677 35.7022 58.8647 35.5521 58.4147 35.587C58.8966 34.6699 59.3786 33.7528 59.9191 32.8204C60.4051 32.5856 60.8325 32.3662 61.2599 32.1467C61.2427 32.0978 61.2254 32.0488 61.2081 31.9998C61.2646 31.9947 61.344 31.9627 61.3744 31.9884C62.2066 32.6939 63.0108 32.4411 63.8737 32.0043C64.6387 31.617 64.9499 31.8733 64.9503 32.7581C64.9506 33.5147 65.3887 33.913 66.185 33.9018C66.3448 33.8995 66.6151 33.9159 66.649 33.9992C67.0487 34.9806 67.6392 34.4483 68.2583 34.2069Z" fill="#7C6964"/>
<path d="M58.3718 35.6262C58.8647 35.5522 59.0677 35.7023 59.1307 36.2085C59.1911 36.6933 59.4859 37.1448 59.6374 37.6237C59.7438 37.9598 59.8011 38.3149 59.8451 38.666C59.8733 38.8914 59.7891 39.1359 59.8384 39.3529C60.2192 41.0304 60.205 41.8798 59.658 43.5274C60.2588 43.4179 60.7432 43.3297 61.2673 43.2945C60.8646 43.5461 60.4223 43.7447 59.9143 43.9521C58.151 44.5931 56.4535 45.2255 54.6931 45.838C54.2677 45.2886 54.2393 44.8257 54.8798 44.4785C55.3916 44.2009 55.2801 43.9215 54.9533 43.525C54.6927 43.209 54.4482 42.771 54.4396 42.3818C54.4273 41.8281 54.6377 41.2694 54.7485 40.7341C54.4721 40.7015 54.1708 40.666 53.8696 40.6305C54.5849 39.8479 55.3251 39.0861 56.0037 38.2728C56.2866 37.9337 56.4382 37.4852 56.6654 37.031C57.5343 36.9208 57.9237 36.283 58.3718 35.6262Z" fill="#7C716F"/>
<path d="M87.1139 55.4205C87.6071 53.2031 88.1003 50.9858 88.6215 48.7077C89.1022 48.4138 89.2152 48.6397 89.2007 49.0501C89.157 50.2844 89.0863 51.5186 89.0809 52.7531C89.0717 54.7988 88.2353 56.6313 87.6378 58.5232C87.2576 59.727 86.8349 60.9216 86.3503 62.0867C86.0327 62.8504 85.6111 63.58 85.164 64.2788C84.3795 65.5048 83.6102 66.7518 82.7051 67.8867C81.5769 69.3011 80.3855 70.6799 79.0959 71.9463C77.8042 73.2147 76.4279 74.4227 74.9615 75.4809C73.1689 76.7747 71.2793 77.9464 69.3622 79.0502C68.3228 79.6487 67.1333 79.983 66.0215 80.4598C63.5214 81.5322 60.9291 82.2891 58.2627 82.817C56.7957 83.1074 55.3531 83.5424 53.8771 83.7601C52.391 83.9793 50.8774 84.0151 49.3752 84.1217C48.4255 84.1891 47.4735 84.3005 46.5242 84.2851C43.7011 84.2393 40.9045 83.9349 38.1306 83.3807C37.05 83.1648 35.933 83.1313 34.8333 83.0089C34.6933 82.9933 34.5539 82.9515 34.4198 82.9055C33.4158 82.561 32.4096 82.2221 31.4133 81.8562C31.2308 81.7892 31.0904 81.6073 30.9248 81.4118C30.919 81.3452 30.9221 81.3421 30.9951 81.341C31.3795 81.3922 31.6944 81.4284 32.0013 81.4996C33.536 81.8555 35.0521 82.3351 36.6053 82.5592C40.0474 83.0558 43.5037 83.4906 46.9991 83.253C47.8327 83.1963 48.6694 83.1671 49.4995 83.0775C51.7743 82.8319 54.0594 82.6407 56.3149 82.2716C57.8044 82.0279 59.252 81.5227 60.714 81.119C62.0468 80.7509 63.4266 80.4867 64.6907 79.952C66.4666 79.2009 68.1628 78.2576 69.8759 77.3634C70.4572 77.06 70.9745 76.6366 71.5414 76.3024C73.3014 75.2649 75.0468 74.2205 76.4802 72.722C77.6834 71.4643 79.0466 70.349 80.1654 69.0242C81.3571 67.6132 82.3445 66.0297 83.4222 64.5223C83.5189 64.3872 83.6321 64.2634 83.7235 64.125C83.9842 63.7305 84.2705 63.3481 84.4854 62.9295C84.7424 62.4289 84.9269 61.8916 85.1603 61.3781C85.2896 61.0937 85.4617 60.8291 85.6023 60.5494C86.0461 59.6667 86.0603 58.5717 86.9415 57.8973C87.0676 57.8007 87.0541 57.5268 87.1144 57.338C87.2265 56.9873 87.3453 56.6387 87.4694 56.3073C87.4775 56.3252 87.5249 56.3278 87.5249 56.3278C87.5249 56.3278 87.4607 56.29 87.4609 56.227C87.3454 55.9162 87.2297 55.6684 87.1139 55.4205Z" fill="#070C12" fill-opacity="0.8"/>
<path d="M88.7641 47.5895C88.6971 47.3506 88.6937 47.1065 88.7029 46.79C89.4026 46.9224 89.3941 47.2172 88.7641 47.5895Z" fill="#3B4551"/>
<path d="M39.0542 41.843C38.0218 42.7047 36.94 43.5422 35.7663 44.4482C33.9151 45.6602 32.1597 46.8096 30.3933 47.9418C30.0601 48.1554 29.5673 48.2163 29.3594 48.5016C29.1618 48.7729 29.2407 49.2457 29.2113 49.5101C27.5464 50.7184 25.8772 51.8008 24.3545 53.0603C20.4545 56.2863 17.5086 60.2115 15.9225 65.078C15.3287 66.8996 14.9321 68.737 15.1915 70.6757C15.2216 70.901 14.9033 71.1729 14.7465 71.4232C14.496 71.2065 14.2455 70.9898 13.9473 70.7453C13.4688 70.3706 13.0379 70.0237 12.5439 69.683C12.4518 69.5914 12.4228 69.4936 12.3536 69.3611C12.0414 69.0163 11.7694 68.7062 11.4677 68.3464C11.6632 68.185 11.8885 68.0734 12.1477 67.945C12.0469 67.6789 11.8993 67.4662 11.9028 67.2559C11.9077 66.9632 11.9543 66.6144 12.1246 66.4045C12.2124 66.2964 12.6058 66.4491 12.8621 66.4614C13.1438 66.4749 13.4276 66.4769 13.7087 66.4577C14.0154 66.4368 14.32 66.3859 14.6705 66.3426C14.6705 66.5364 14.6705 66.7448 14.6705 66.9531C14.7382 66.9612 14.8059 66.9693 14.8736 66.9775C15.0394 65.8065 15.1944 64.6337 15.3767 63.4653C15.4459 63.0216 15.5073 62.5503 15.7118 62.1658C15.8095 61.9821 16.2332 61.9718 16.7123 61.8176C16.7486 61.2547 16.84 60.5581 16.8268 59.8635C16.8099 58.9763 17.2606 58.35 18.1937 58.1893C18.0374 57.9964 17.9007 57.8277 17.7701 57.6665C18.1424 57.08 18.4242 56.4579 18.8639 55.9816C19.6971 55.0788 20.6317 54.2704 21.5032 53.4017C22.0479 52.8586 22.5542 52.2769 23.0868 51.6533C23.0959 51.5941 23.0964 51.5933 23.1441 51.5682C23.3339 51.3864 23.4761 51.2297 23.6182 51.073C25.2352 49.8898 26.8596 48.7164 28.4643 47.5166C28.8894 47.1987 29.6369 47.1436 29.5342 46.2704C31.0832 45.4853 32.6337 44.7693 34.1815 44.0479C35.1896 43.5781 36.1979 43.1086 37.197 42.6204C37.4383 42.5025 37.6436 42.3112 37.878 42.0929C38.0993 41.9461 38.3081 41.8601 38.5547 41.7314C38.73 41.7321 38.8674 41.7754 39.0542 41.843ZM12.3541 68.3869C12.321 68.4341 12.288 68.4814 12.255 68.5286C12.304 68.4983 12.3531 68.468 12.3541 68.3869Z" fill="#A1B6BF"/>
<path d="M23.5795 51.0361C23.476 51.2296 23.3339 51.3863 23.1444 51.5678C23.245 51.3949 23.3929 51.1971 23.5795 51.0361Z" fill="#A9BEC5"/>
<path d="M75.4579 27.2391C75.4579 26.8255 75.4579 26.4119 75.4579 25.9983C75.5897 25.9963 75.7214 25.9942 75.8532 25.9922C75.9862 28.3442 76.1193 30.6963 76.2524 33.0483C76.1645 33.053 76.0766 33.0578 75.9888 33.0625C75.9888 31.7214 75.9888 30.3803 75.9888 29.0392C75.9002 29.0432 75.8116 29.0472 75.723 29.0512C75.8208 31.3298 75.9187 33.6085 76.0265 36.1205C75.8396 36.7697 75.5227 37.6989 75.3075 38.6511C74.728 41.2167 74.0037 43.7294 72.5734 45.9661C71.2619 48.0171 69.9962 50.1126 68.5079 52.0314C66.4738 54.6538 64.1542 57.0348 61.5886 59.1612C60.3445 60.1924 59.1325 61.2624 57.8843 62.2886C56.9678 63.0421 55.9835 63.7154 55.0903 64.4942C54.3298 65.1573 53.6617 65.9257 52.9428 66.6375C52.0345 67.537 51.0807 68.3936 50.2136 69.3307C49.537 70.0618 48.9277 70.8627 48.3494 71.6759C46.4003 74.4166 44.6555 77.2592 44.1432 80.7452C44.1439 80.8164 44.1456 80.818 44.0644 80.8174C41.2012 80.5734 38.4046 80.4322 35.6451 80.0339C34.6091 79.8844 33.356 79.9197 32.556 78.8361C32.5909 77.7268 32.6483 76.6814 32.7379 75.6069C32.7993 75.5276 32.8285 75.4775 32.9134 75.442C33.7205 75.9811 32.7876 76.5253 33.0248 77.3156C34.1593 75.849 33.6561 74.1079 34.5606 72.678C35.191 72.4416 35.9936 72.0741 36.9093 72.5886C37.1426 72.7197 37.5651 72.4964 37.9034 72.4644C38.1392 72.442 38.5659 72.4082 38.5895 72.4816C38.8503 73.2931 39.5802 73.4252 40.2101 73.7615C41.05 74.2099 41.6964 73.9986 42.0563 73.0657C42.2667 72.5202 42.7064 72.0431 42.8285 71.488C43.0262 70.5893 43.5185 69.9531 44.187 69.3936C44.2444 69.3456 44.2848 69.2319 44.2753 69.1559C44.121 67.9241 45.2109 67.4441 45.7576 66.4183C46.1144 67.2687 46.3558 68.0556 47.3343 67.5419C47.8841 67.2534 47.9757 66.5051 47.5636 65.5862C47.3331 65.635 47.0957 65.6854 46.8582 65.7357C46.8306 65.6651 46.8029 65.5944 46.7753 65.5237C47.1825 65.3045 47.7584 64.794 47.9684 64.9156C48.9782 65.5001 49.532 64.96 50.0792 64.2749C50.2358 64.0789 50.3254 63.8293 50.4458 63.6043C50.179 63.5852 49.9112 63.5432 49.646 63.5557C49.4882 63.5631 49.3344 63.6562 49.1362 63.7257C49.0166 62.4697 48.4289 61.2341 49.5081 60.1555C49.5695 60.0941 49.4949 59.9135 49.5438 59.8198C49.754 59.4178 49.9164 58.9555 50.2286 58.651C50.6349 58.2549 51.1849 58.0109 51.6397 57.6584C52.1193 57.2867 52.5597 56.8644 53.08 56.4623C53.5636 56.3927 53.8286 56.2974 53.4574 55.801C53.2138 55.4754 53.0961 55.0555 52.9084 54.6483C53.4189 54.4464 53.8381 54.2806 54.2788 54.1063C54.3925 54.5547 54.4966 54.9651 54.6538 55.5849C55.1499 55.118 55.4805 54.8069 55.8012 54.505C55.409 54.1708 55.1274 53.931 54.8016 53.6534C55.453 53.3927 55.9694 53.1859 56.5288 52.962C56.6312 53.2929 56.7041 53.5283 56.7773 53.765C57.5829 53.4864 57.7141 52.677 57.1537 51.8506C58.4056 51.0339 59.6264 50.2689 60.9018 49.4818C62.5904 48.2275 64.2891 47.0707 65.8389 45.7403C67.233 44.5436 68.4989 43.1891 69.7489 41.8372C70.2472 41.2983 70.5508 40.5793 70.94 39.9394C70.937 39.9365 70.9353 39.9447 70.9743 39.924C71.0487 39.8568 71.0841 39.8103 71.1639 39.7268C72.5282 37.8716 73.3325 35.8255 73.8704 33.6618C73.8768 33.5356 73.8832 33.4093 73.9319 33.1869C74.0041 32.9945 74.0339 32.8981 74.0637 32.8018C74.1237 32.5594 74.1836 32.3169 74.2893 32.0081C74.335 31.9418 74.4154 31.936 74.4572 31.8965C74.529 31.7086 74.559 31.5601 74.6283 31.3765C74.6393 31.1886 74.611 31.0357 74.5827 30.8829C74.5878 30.5879 74.593 30.293 74.6416 29.9561C74.811 29.8536 75.0517 29.761 75.0451 29.7376C74.9724 29.4785 74.8614 29.23 74.7608 28.9787C74.7565 28.9004 74.7523 28.8221 74.7975 28.6893C74.877 28.6351 74.9072 28.6356 75.0025 28.6229C75.1977 28.1529 75.3278 27.696 75.4579 27.2391ZM50.7022 61.5635C50.4364 61.7025 50.1707 61.8415 49.905 61.9805C49.994 62.0685 50.0831 62.1565 50.1721 62.2446C50.8422 62.3026 51.0345 62.0937 50.7022 61.5635ZM43.8796 80.3414C43.8696 80.3321 43.8597 80.3228 43.8796 80.3414Z" fill="#244255"/>
<path d="M73.8089 33.668C73.3325 35.8253 72.5282 37.8714 71.1256 39.7485C71.007 39.8529 70.9712 39.8987 70.9353 39.9444C70.9353 39.9444 70.937 39.9363 70.8756 39.9295C69.7614 40.0257 68.9887 39.5147 68.2218 38.8659C68.0209 38.6959 67.4663 38.8444 67.1225 38.9746C66.8484 39.0783 66.6479 39.3766 66.4148 39.5885C66.6139 39.2016 66.8131 38.8146 67.0648 38.3956C67.2005 38.343 67.3055 38.3478 67.3639 38.298C68.6326 37.2147 69.8924 36.1209 71.1672 35.0449C71.2783 34.9511 71.5389 34.8813 71.6329 34.9447C72.3288 35.4137 72.5627 34.9294 72.8855 34.4408C73.0903 34.1309 73.4546 33.9262 73.8089 33.668Z" fill="#485460"/>
<path d="M74.9374 28.6356C74.9072 28.6352 74.8771 28.6347 74.8018 28.6302C74.6319 26.8294 74.5072 25.0328 74.4317 23.1904C74.6316 23.2924 74.7821 23.4399 74.9327 23.5875C74.9333 23.7177 74.9338 23.848 74.8968 24.0783C74.8848 24.3264 74.9104 24.4745 74.9361 24.6225C74.9372 24.6528 74.9383 24.6831 74.9396 24.8216C74.9966 25.1191 75.0537 25.3085 75.1107 25.4979C75.1103 25.5758 75.1099 25.6537 75.0642 25.8458C74.9916 26.8519 74.9645 27.7437 74.9374 28.6356Z" fill="#262E37"/>
<path d="M74.9561 23.5347C74.7821 23.44 74.6316 23.2924 74.4331 23.1156C74.3852 23.0863 74.3901 23.0819 74.3929 23.0282C74.3475 22.8894 74.2993 22.8042 74.2512 22.719C74.1829 22.476 74.1146 22.2331 74.0387 21.927C74.5624 21.6142 74.8231 21.7747 74.8482 22.3696C74.8638 22.7415 74.9338 23.1111 74.9561 23.5347Z" fill="#152A3A"/>
<path d="M74.7372 29.0371C74.8614 29.2293 74.9724 29.4778 75.0451 29.7369C75.0516 29.7603 74.811 29.8529 74.6515 29.8823C74.6498 29.5995 74.6817 29.3479 74.7372 29.0371Z" fill="#152A3A"/>
<path d="M74.5522 30.9092C74.611 31.0352 74.6393 31.188 74.5973 31.3738C74.5271 31.4068 74.4654 31.4003 74.4595 31.3454C74.4461 31.2172 74.4387 31.144 74.4314 31.0708C74.455 31.0215 74.4851 30.9766 74.5522 30.9092Z" fill="#152A3A"/>
<path d="M74.3836 31.1152C74.4387 31.1438 74.4461 31.217 74.4447 31.4112C74.4291 31.6665 74.4223 31.8009 74.4154 31.9352C74.4154 31.9352 74.335 31.9409 74.2948 31.942C74.2817 31.682 74.3087 31.421 74.3836 31.1152Z" fill="#485460"/>
<path d="M74.0231 32.833C74.0339 32.8972 74.0041 32.9935 73.935 33.1229C73.9246 33.0589 73.9535 32.962 74.0231 32.833Z" fill="#485460"/>
<path d="M74.2498 22.7705C74.2994 22.8041 74.3475 22.8894 74.3946 23.0255C74.3451 22.9917 74.2968 22.9069 74.2498 22.7705Z" fill="#262E37"/>
<path d="M87.4614 56.2891C87.3453 56.6385 87.2265 56.987 87.1144 57.3377C87.0541 57.5266 87.0676 57.8005 86.9415 57.897C86.0603 58.5714 86.0461 59.6664 85.6023 60.5492C85.4617 60.8289 85.2896 61.0935 85.1603 61.3779C84.9269 61.8913 84.7424 62.4286 84.4854 62.9292C84.2705 63.3479 83.9842 63.7303 83.7235 64.1248C83.6321 64.2631 83.5189 64.3869 83.4222 64.5221C82.3445 66.0295 81.3571 67.6129 80.1654 69.024C79.0466 70.3488 77.6834 71.4641 76.4802 72.7218C75.0468 74.2203 73.3014 75.2647 71.5414 76.3022C70.9745 76.6364 70.4572 77.0598 69.8759 77.3632C68.1628 78.2573 66.4666 79.2007 64.6907 79.9518C63.4266 80.4865 62.0468 80.7507 60.714 81.1187C59.252 81.5224 57.8044 82.0277 56.3149 82.2714C54.0594 82.6404 51.7743 82.8317 49.4995 83.0773C48.6694 83.1669 47.8327 83.1961 46.9991 83.2527C43.5036 83.4903 40.0474 83.0555 36.6053 82.559C35.0521 82.3349 33.536 81.8553 32.0013 81.4993C31.6944 81.4282 31.3794 81.3919 30.9961 81.3398C30.4269 81.0499 29.94 80.7401 29.4296 80.4756C28.9782 80.2417 28.5069 80.0424 28.0332 79.8562C27.2851 79.5621 26.5247 79.2991 25.7768 79.0045C25.645 78.9526 25.5488 78.8104 25.4361 78.71C25.5866 78.6125 25.7472 78.4193 25.8859 78.4339C26.5354 78.5023 27.179 78.6279 27.918 78.7754C28.1098 78.8974 28.2081 78.977 28.3172 79.1189C28.6313 79.428 28.8992 79.763 29.2457 79.902C29.8566 80.1471 30.5237 80.2473 31.152 80.4544C31.9388 80.7136 32.6894 81.1359 33.4928 81.279C34.8455 81.52 36.227 81.6027 37.5975 81.7409C40.3342 82.0169 43.0699 82.3072 45.8106 82.5374C46.3249 82.5806 46.8769 82.2394 47.383 82.303C49.0204 82.5087 50.6087 82.3259 52.1917 81.9375C53.0225 81.7336 53.8536 81.3993 54.6904 81.3802C56.1726 81.3464 57.6036 81.2082 58.9768 80.6124C59.6098 80.3378 60.2687 80.1203 60.9229 79.8978C62.0063 79.5292 63.2153 79.365 64.1499 78.768C65.1704 78.116 66.4249 78.4762 67.3793 77.6647C67.9931 77.1428 68.8869 76.9657 69.5809 76.5187C70.5706 75.8812 71.4779 75.1173 72.4473 74.4463C73.3175 73.844 74.2581 73.3387 75.0957 72.6968C75.3852 72.475 75.4585 71.9711 75.6305 71.596C76.8465 70.4157 78.0789 69.2517 79.2755 68.0519C82.8394 64.4786 85.3392 60.2428 87.0702 55.4639C87.2297 55.6681 87.3454 55.916 87.4611 56.2267C87.4611 56.2895 87.4614 56.2891 87.4614 56.2891ZM76.2402 71.4519C76.2969 71.4411 76.3535 71.4303 76.4102 71.4195C76.3539 71.4066 76.2976 71.3938 76.2402 71.4519Z" fill="#070C12" fill-opacity="0.9"/>
<path d="M75.5762 71.6201C75.4585 71.9716 75.3852 72.4755 75.0957 72.6973C74.2581 73.3392 73.3175 73.8445 72.4474 74.4468C71.478 75.1179 70.5707 75.8818 69.5809 76.5192C68.8869 76.9662 67.9932 77.1434 67.3793 77.6653C66.4249 78.4767 65.1705 78.1165 64.1499 78.7685C63.2154 79.3655 62.0064 79.5297 60.923 79.8983C60.2687 80.1209 59.6098 80.3383 58.9768 80.6129C57.6037 81.2087 56.1727 81.3469 54.6905 81.3808C53.8536 81.3999 53.0226 81.7341 52.1917 81.938C50.6087 82.3265 49.0205 82.5092 47.3831 82.3035C46.877 82.24 46.3249 82.5811 45.8106 82.5379C43.0699 82.3077 40.3342 82.0174 37.5975 81.7415C36.227 81.6033 34.8456 81.5205 33.4928 81.2796C32.6894 81.1364 31.9388 80.7141 31.1521 80.4549C30.5237 80.2478 29.8566 80.1476 29.2457 79.9026C28.8992 79.7635 28.6313 79.4285 28.3863 79.1323C29.9018 79.4276 31.3591 79.7724 32.8839 80.1277C34.2298 80.4793 35.4909 80.9923 36.7907 81.1244C39.2234 81.3717 41.6785 81.3983 44.1243 81.5166C45.0382 81.5707 45.9597 81.7259 46.8646 81.6586C49.0195 81.4986 51.1763 81.3013 53.3148 80.9961C57.1922 80.4427 60.9347 79.355 64.571 77.9048C68.3788 76.3863 71.9058 74.374 75.1463 71.8609C75.2595 71.773 75.3962 71.7154 75.5762 71.6201Z" fill="#070C12"/>
<path d="M44.1292 81.4465C41.6785 81.3979 39.2234 81.3713 36.7907 81.124C35.4909 80.9919 34.2298 80.4789 32.8656 80.0695C32.7314 79.8037 32.683 79.6061 32.6329 79.3446C32.6137 79.1537 32.5961 79.0265 32.5784 78.8994C33.356 79.9191 34.6091 79.8838 35.6451 80.0333C38.4046 80.4316 41.2013 80.5728 44.0647 80.8175C44.1422 81.0048 44.1382 81.1908 44.1292 81.4465Z" fill="#152A3A"/>
<path d="M16.0995 60.8213C16.2347 60.9485 16.3297 61.1188 16.4248 61.289C16.303 61.3307 16.1812 61.3724 16.0594 61.4141C16.0594 61.2309 16.0594 61.0476 16.0995 60.8213Z" fill="#A1B6BF"/>
<path d="M15.0032 63.5113C15.0058 63.5167 15.0007 63.5059 15.0032 63.5113Z" fill="#A1B6BF"/>
<path d="M32.556 78.8357C32.596 79.0267 32.6137 79.1539 32.5663 79.3488C30.9843 79.0332 29.4672 78.6497 27.9501 78.2661C27.7617 78.1986 27.5732 78.1311 27.2814 78.0144C26.8269 77.8359 26.4759 77.7068 26.1249 77.5774C24.8038 77.0903 23.4827 76.6031 22.1616 76.1159C22.0908 76.0182 22.02 75.9205 21.9099 75.7241C21.8164 75.3423 21.7265 75.0609 21.7136 74.776C21.5726 71.6753 22.0625 68.6852 23.39 65.8653C25.1991 62.0223 27.9302 58.9461 31.3267 56.4306C33.8346 54.5731 36.6062 53.1969 39.4829 51.9727C39.8112 52.0632 40.0989 52.1154 40.3867 52.1677C40.2356 52.4238 40.0724 52.6736 39.9373 52.9378C39.8247 53.1583 39.6495 53.404 39.6686 53.624C39.7273 54.3004 39.8303 54.9785 39.9908 55.6378C40.0558 55.9048 40.2619 56.2126 40.4937 56.3504C41.3306 56.8479 41.4533 57.6882 40.7125 58.3476C40.4824 58.5525 40.1965 58.6947 40.1283 58.7394C39.9898 59.2273 39.8886 59.533 39.8183 59.8458C39.7445 60.1744 39.7009 60.5098 39.6433 60.8422C39.6168 60.9954 39.6432 61.2045 39.5526 61.2926C38.6785 62.1431 37.7557 62.9458 36.9164 63.8284C36.7047 64.051 36.6418 64.5265 36.6945 64.8564C36.7428 65.1588 37.0394 65.4215 37.2069 65.7591C36.4298 67.0951 35.6724 68.3735 34.8756 69.6899C34.7925 69.8271 34.7488 69.9263 34.6646 70.0701C34.4998 70.4015 34.3775 70.6891 34.2508 70.9748C33.8982 71.7699 33.5439 72.5642 33.1888 73.285C33.1919 72.9668 33.1965 72.7224 33.2449 72.4362C33.4366 72.0507 33.8192 71.6817 33.1281 71.4371C32.9804 71.6518 32.8882 71.8522 32.6903 72.2824C33.0076 72.068 33.0957 72.0085 33.1836 72.0122C33.1791 72.2016 33.1749 72.3276 33.129 72.5031C32.9468 73.2191 32.8063 73.8857 32.6649 74.5539C32.6641 74.5555 32.6624 74.5588 32.6168 74.6043C32.4698 75.1168 32.3684 75.5838 32.2669 76.0508C32.3087 76.0598 32.3504 76.0688 32.3921 76.0778C32.483 75.9184 32.5739 75.759 32.675 75.6087C32.6851 75.6177 32.7057 75.6356 32.7057 75.6356C32.6483 76.681 32.591 77.7264 32.556 78.8357ZM34.7758 66.8669C34.7234 67.1373 34.671 67.4077 34.6029 67.7592C35.6633 67.3923 35.9756 66.7097 35.5541 65.9304C35.3151 66.2108 35.0815 66.485 34.7758 66.8669ZM33.8176 70.2131C33.9355 69.907 34.0534 69.6009 34.1713 69.2948C34.0421 69.2573 33.9129 69.2199 33.7837 69.1824C33.7077 69.5519 33.6316 69.9214 33.5556 70.291C33.6445 70.2998 33.7335 70.3086 33.8176 70.2131ZM34.3429 68.2894C34.2631 68.3075 34.1834 68.3256 34.1036 68.3437C34.1393 68.4074 34.1749 68.471 34.2106 68.5347C34.2618 68.4832 34.313 68.4318 34.3429 68.2894ZM36.4046 65.1338C36.348 65.1446 36.2915 65.1555 36.2349 65.1663C36.2911 65.1791 36.3472 65.1919 36.4046 65.1338Z" fill="#638398"/>
<path d="M27.9541 78.3242C29.4672 78.6498 30.9843 79.0333 32.5679 79.4128C32.683 79.6064 32.7314 79.8041 32.7982 80.0595C31.3591 79.7724 29.9018 79.4275 28.3755 79.0699C28.2081 78.9775 28.1098 78.8979 27.9872 78.7763C27.9613 78.617 27.9597 78.4996 27.9541 78.3242Z" fill="#070C12"/>
<path d="M22.165 76.1592C23.4827 76.603 24.8038 77.0902 26.1249 77.5774C26.4759 77.7068 26.827 77.8358 27.2214 78.0104C26.5678 78.0123 25.8248 78.1068 25.1839 77.894C24.1281 77.5434 23.1383 76.994 22.0801 76.4782C22.0826 76.3529 22.1255 76.2777 22.165 76.1592Z" fill="#070C12"/>
<path d="M14.7456 71.467C14.9033 71.1729 15.2216 70.901 15.1915 70.6757C14.9321 68.737 15.3287 66.8996 15.9225 65.0779C17.5086 60.2114 20.4545 56.2863 24.3545 53.0603C25.8772 51.8008 27.5464 50.7184 29.2112 49.5101C29.2406 49.2456 29.1618 48.7729 29.3594 48.5016C29.5673 48.2163 30.0601 48.1554 30.3933 47.9418C32.1597 46.8096 33.9151 45.6602 35.727 44.4922C35.9378 44.737 36.104 45.0022 36.2524 45.2769C36.4712 45.6818 36.8628 46.0222 36.329 46.5531C36.0978 46.783 36.1818 47.3297 36.1139 47.7916C36.5641 47.871 37.0812 47.9623 37.7371 48.078C37.4056 48.2937 37.1812 48.4398 36.8794 48.6362C37.0312 48.708 37.1393 48.7592 37.2874 48.8729C36.4132 49.3279 35.4774 49.6772 34.5897 50.1223C33.0769 50.8808 31.5133 51.5868 30.152 52.5662C29.7774 52.8357 29.5553 53.3672 28.9306 53.308C29.2574 54.2977 29.257 54.2944 28.1949 54.258C28.0609 54.2534 27.8851 54.2698 27.7955 54.3506C26.8422 55.2097 25.8766 56.0582 24.9775 56.9718C24.7551 57.1979 24.7917 57.6615 24.6518 57.9916C24.5363 58.2643 24.3908 58.5819 24.1619 58.737C23.6841 59.0607 23.5994 59.3785 23.8501 59.8999C23.9956 60.2025 23.9712 60.5888 24.0132 60.9385C24.0602 61.3295 24.1501 61.7266 24.1166 62.112C24.0955 62.3548 23.8394 62.7966 23.7622 62.7811C23.03 62.6349 22.8639 63.1977 22.6528 63.6385C22.2676 64.4425 21.9843 65.2971 21.5732 66.0861C21.4006 66.4172 21.0544 66.7536 20.7107 66.8805C19.9008 67.1795 19.0958 67.3852 19.2381 68.5268C19.2591 68.6956 19.0712 68.8905 18.8827 69.2682C18.7694 68.7134 18.7041 68.3934 18.6388 68.0733C18.4138 68.7821 18.4427 69.4768 18.3155 70.1417C18.0799 71.3731 18.3617 72.3965 19.2459 73.2895C19.4891 73.5351 19.9237 73.9042 19.2557 74.2162C18.3502 73.6813 17.4472 73.1421 16.5382 72.6132C16.0465 72.3271 15.5446 72.0584 14.983 71.7782C14.9022 71.7178 14.8703 71.6718 14.7847 71.6176C14.746 71.5693 14.7454 71.5401 14.7456 71.467ZM22.3819 62.8722C21.9034 62.619 21.86 62.6557 21.8345 63.5442C22.0886 63.2865 22.2338 63.1392 22.3819 62.8722ZM23.5148 60.6812C23.4535 60.7797 23.3923 60.8782 23.331 60.9767C23.4219 60.9954 23.5128 61.014 23.6037 61.0327C23.6082 60.9214 23.6127 60.8101 23.5148 60.6812ZM30.1538 49.112C30.2634 49.1061 30.3729 49.1002 30.4825 49.0943C30.4648 49.022 30.447 48.9497 30.4293 48.8774C30.3272 48.9245 30.225 48.9715 30.1538 49.112ZM22.6614 60.8409C22.7178 60.8302 22.7742 60.8194 22.8306 60.8086C22.7746 60.7958 22.7186 60.7831 22.6614 60.8409Z" fill="#83A2B3"/>
<path d="M19.2875 74.2661C19.9237 73.9035 19.4891 73.5344 19.2459 73.2888C18.3617 72.3958 18.0799 71.3725 18.3155 70.141C18.4427 69.4762 18.4138 68.7814 18.6388 68.0726C18.7041 68.3927 18.7694 68.7128 18.8827 69.2675C19.0712 68.8898 19.2591 68.695 19.2381 68.5262C19.0958 67.3846 19.9008 67.1788 20.7107 66.8798C21.0544 66.753 21.4006 66.4166 21.5732 66.0855C21.9843 65.2965 22.2675 64.4418 22.6528 63.6378C22.8639 63.1971 23.03 62.6342 23.7622 62.7805C23.8394 62.7959 24.0955 62.3542 24.1166 62.1113C24.1501 61.726 24.0602 61.3289 24.0132 60.9379C23.9712 60.5881 23.9956 60.2019 23.8501 59.8993C23.5994 59.3779 23.6841 59.06 24.1619 58.7363C24.3908 58.5812 24.5363 58.2637 24.6518 57.991C24.7917 57.6609 24.755 57.1972 24.9775 56.9711C25.8766 56.0576 26.8422 55.209 27.7955 54.3499C27.8851 54.2691 28.0609 54.2527 28.1949 54.2573C29.257 54.2938 29.2574 54.297 28.9306 53.3073C29.5553 53.3665 29.7774 52.8351 30.1519 52.5656C31.5133 51.5861 33.0769 50.8801 34.5897 50.1216C35.4774 49.6765 36.4132 49.3272 37.3444 48.8766C37.4448 48.763 37.5282 48.7076 37.698 48.6847C37.9315 48.6922 38.0786 48.6673 38.2256 48.6424C38.5257 48.6378 38.8257 48.6333 39.2583 48.656C39.5735 48.8099 39.9184 48.9437 39.9131 49.062C39.8663 50.12 40.7963 50.3615 41.3409 50.9463C40.6863 51.3103 40.0643 51.6222 39.4423 51.9341C36.6062 53.1966 33.8346 54.5728 31.3267 56.4303C27.9302 58.9458 25.1991 62.022 23.39 65.865C22.0625 68.6849 21.5726 71.675 21.7136 74.7757C21.7266 75.0606 21.8164 75.342 21.8725 75.6982C21.0228 75.2865 20.1711 74.8016 19.2875 74.2661Z" fill="#7E9DAE"/>
<path d="M40.6671 39.9365C40.6681 39.9358 40.7295 39.9758 40.7295 39.9758C40.7295 39.9758 40.682 39.9738 40.6734 39.9565C40.6648 39.9391 40.6662 39.9372 40.6671 39.9365Z" fill="#E0C5B4"/>
<path d="M41.3736 50.8945C40.7963 50.3617 39.8663 50.1202 39.9131 49.0621C39.9184 48.9438 39.5735 48.8101 39.3333 48.6539C39.3848 48.4671 39.459 48.235 39.6089 48.1647C40.6511 47.6768 41.7137 47.2326 42.761 46.7551C44.6388 45.899 46.5104 45.0295 48.4418 44.207C48.7114 45.0334 49.2728 45.7631 48.8289 46.6473C48.4382 47.4254 48.7609 47.8885 49.4919 48.1593C47.9071 48.7531 46.3768 49.3273 44.8288 49.849C43.6891 50.2331 42.5262 50.5485 41.3736 50.8945Z" fill="#78838A"/>
<path d="M49.5388 48.1168C48.7609 47.8881 48.4382 47.4251 48.8288 46.647C49.2728 45.7627 48.7113 45.0331 48.4969 44.1822C49.9606 43.1419 51.4259 42.1666 52.893 41.1942C53.1756 41.0069 53.4653 40.8304 53.8106 40.6396C54.1708 40.6659 54.4721 40.7014 54.7486 40.734C54.6377 41.2692 54.4274 41.8279 54.4396 42.3817C54.4482 42.7709 54.6927 43.2088 54.9533 43.5249C55.2801 43.9213 55.3916 44.2008 54.8798 44.4783C54.2393 44.8256 54.2677 45.2885 54.6612 45.8891C54.4808 46.2712 54.2695 46.5823 53.9897 46.8945C53.1557 47.1857 52.3902 47.4759 51.5537 47.7669C50.8347 47.8841 50.1868 48.0005 49.5388 48.1168Z" fill="#747F85"/>
<path d="M38.1927 48.6027C38.0786 48.668 37.9315 48.693 37.7498 48.6815C37.8633 48.6174 38.0115 48.5898 38.1927 48.6027Z" fill="#83A2B3"/>
<path d="M75.0025 28.6225C74.9645 27.7437 74.9916 26.8519 75.0641 25.9043C75.1829 26.2988 75.2564 26.749 75.3939 27.219C75.3278 27.6956 75.1977 28.1525 75.0025 28.6225Z" fill="#152A3A"/>
<path d="M75.1511 25.4562C75.0537 25.3086 74.9966 25.1192 74.941 24.8672C75.0254 25.0079 75.1085 25.2111 75.1511 25.4562Z" fill="#152A3A"/>
<path d="M74.936 24.5584C74.9104 24.4746 74.8848 24.3266 74.8968 24.1436C74.935 24.2371 74.9354 24.3657 74.936 24.5584Z" fill="#152A3A"/>
<path d="M88.4138 38.983C88.4163 38.9884 88.4112 38.9776 88.4138 38.983Z" fill="#414C59"/>
<path d="M66.3482 39.5875C66.6479 39.3762 66.8484 39.0779 67.1225 38.9741C67.4663 38.844 68.021 38.6955 68.2218 38.8654C68.9887 39.5143 69.7614 40.0252 70.8786 39.9319C70.5508 40.5786 70.2472 41.2976 69.7489 41.8366C68.4989 43.1885 67.233 44.543 65.8389 45.7397C64.2892 47.07 62.5904 48.2268 60.8646 49.4452C60.5907 49.4139 60.4088 49.3964 60.1781 49.3743C60.2846 48.7772 60.2005 47.9486 60.5102 47.7573C61.4281 47.1902 61.197 46.3899 61.3177 45.5822C61.1438 45.5741 61.0357 45.5702 60.9278 45.5638C60.8019 45.5563 60.6762 45.5466 60.5462 45.5376C60.6936 44.4446 60.6164 44.3887 59.6181 44.7706C59.5142 44.8103 59.3907 44.7988 59.2895 44.7539C59.5284 44.4456 59.7542 44.1945 59.98 43.9434C60.4223 43.7448 60.8646 43.5462 61.3348 43.294C61.3627 43.2405 61.3667 43.2404 61.4257 43.2319C61.8505 42.9393 62.2162 42.6553 62.5819 42.3714C63.5391 41.607 64.4908 40.8355 65.4572 40.083C65.7084 39.8873 66.0056 39.7507 66.3482 39.5875Z" fill="#56626D"/>
<path d="M62.5181 42.374C62.2162 42.6556 61.8505 42.9396 61.4252 43.2306C61.7285 42.9506 62.0914 42.6635 62.5181 42.374Z" fill="#7C716F"/>
<path d="M59.9143 43.9521C59.7542 44.1945 59.5284 44.4456 59.2323 44.7797C57.4608 45.5397 55.7595 46.2166 54.0582 46.8936C54.2695 46.5825 54.4808 46.2714 54.7241 45.9091C56.4535 45.2255 58.151 44.5932 59.9143 43.9521Z" fill="#66737B"/>
<path d="M87.4609 56.2901L87.5249 56.328C87.5249 56.328 87.4775 56.3255 87.4694 56.3075C87.4614 56.2895 87.4609 56.2901 87.4609 56.2901Z" fill="#2F3741"/>
<path d="M12.3781 68.4121C12.353 68.4678 12.304 68.4981 12.255 68.5284C12.288 68.4811 12.321 68.4339 12.3781 68.4121Z" fill="#A9BEC5"/>
<path d="M34.915 69.6515C35.6724 68.3731 36.4298 67.0947 37.2542 65.7274C39.2246 63.1627 41.4958 61.0668 44.0346 59.2679C45.4942 58.2337 47.025 57.2998 48.58 56.3056C48.9567 56.0829 49.2771 55.8755 49.6508 55.6505C49.8835 55.508 50.0628 55.3829 50.2381 55.2518C50.2339 55.2456 50.2415 55.2585 50.3091 55.2619C50.9082 55.0251 51.4397 54.785 52.0088 54.5826C52.2523 54.4752 52.4582 54.33 52.6694 54.1504C52.6745 54.116 52.6874 54.0476 52.7415 54.0432C52.8676 54.032 52.9396 54.0252 53.0493 54.0569C53.2934 53.9492 53.4998 53.8033 53.7455 53.6151C54.1018 53.4241 54.4188 53.2751 54.7686 53.1644C54.8989 53.1247 54.9964 53.0466 55.0997 52.9707C55.1054 52.9728 55.0934 52.9733 55.1621 52.9742C55.9827 52.8848 56.6331 52.6222 57.048 51.912C57.0724 51.9054 57.1226 51.9014 57.1226 51.9014C57.7142 52.6762 57.5829 53.4856 56.7773 53.7642C56.7041 53.5275 56.6312 53.2921 56.5288 52.9612C55.9694 53.1851 55.453 53.3919 54.8016 53.6526C55.1274 53.9301 55.409 54.17 55.8013 54.5041C55.4805 54.806 55.1499 55.1172 54.6538 55.5841C54.4966 54.9643 54.3926 54.5539 54.2788 54.1055C53.8381 54.2798 53.4189 54.4456 52.9085 54.6475C53.0962 55.0547 53.2139 55.4745 53.4574 55.8002C53.8287 56.2965 53.5637 56.3919 53.0722 56.4072C52.8998 56.2369 52.7979 56.119 52.6961 56.0011C52.643 56.0643 52.5899 56.1276 52.5367 56.1908C52.6969 56.2817 52.8571 56.3725 53.0173 56.4633C52.5597 56.8635 52.1193 57.2859 51.6397 57.6576C51.1849 58.01 50.635 58.2541 50.2287 58.6502C49.9164 58.9547 49.754 59.417 49.5438 59.819C49.4949 59.9126 49.5695 60.0933 49.5081 60.1546C48.4289 61.2333 49.0166 62.4689 49.1362 63.7249C49.3344 63.6554 49.4882 63.5623 49.646 63.5549C49.9112 63.5424 50.1791 63.5844 50.4458 63.6035C50.3255 63.8285 50.2359 64.0781 50.0793 64.2741C49.532 64.9592 48.9782 65.4993 47.9684 64.9148C47.7584 64.7932 47.1825 65.3037 46.7753 65.5229C46.8029 65.5936 46.8306 65.6642 46.8582 65.7349C47.0957 65.6846 47.3332 65.6342 47.5636 65.5854C47.9757 66.5043 47.8841 67.2525 47.3343 67.5411C46.3558 68.0548 46.1144 67.2679 45.7577 66.4175C45.2109 67.4433 44.121 67.9233 44.2753 69.1551C44.2848 69.231 44.2444 69.3447 44.187 69.3928C43.5186 69.9523 43.0262 70.5885 42.8285 71.4872C42.7065 72.0423 42.2667 72.5194 42.0563 73.0649C41.6965 73.9977 41.0501 74.2091 40.2101 73.7607C39.5802 73.4243 38.8503 73.2923 38.5895 72.4808C38.5659 72.4073 38.1392 72.4411 37.9034 72.4635C37.5651 72.4956 37.1426 72.7189 36.9094 72.5878C35.9936 72.0733 35.191 72.4407 34.5606 72.6771C33.6561 74.1071 34.1593 75.8482 33.0248 77.3148C32.7876 76.5245 33.7205 75.9803 32.9095 75.3803C32.9067 75.1123 32.9637 74.9199 33.0748 74.7154C33.1367 74.5312 33.1445 74.359 33.1575 74.1201C33.1675 73.8751 33.1722 73.6968 33.1819 73.4787C33.1869 73.4388 33.1902 73.3584 33.1902 73.3584C33.5439 72.5638 33.8983 71.7695 34.2508 70.9744C34.3775 70.6887 34.4998 70.401 34.7142 70.0403C34.8412 69.8614 34.8781 69.7565 34.915 69.6515ZM51.7194 56.5942C51.7665 56.6271 51.8136 56.6601 51.8606 56.693C51.8305 56.6441 51.8003 56.5952 51.7194 56.5942Z" fill="#26445A"/>
<path d="M53.0116 54.0191C52.9396 54.0258 52.8676 54.0326 52.7006 54.0016C51.8176 54.3956 51.0295 54.8274 50.2415 55.2591C50.2415 55.2591 50.2339 55.2462 50.1719 55.2487C49.9772 55.2495 49.8446 55.2479 49.7202 55.1894C49.8471 54.895 50.0769 54.6504 50.0624 54.4213C50.0262 53.8491 49.9777 53.2409 49.753 52.7263C49.4236 51.9718 49.7116 51.9553 50.3219 52.0407C50.5395 52.0712 50.8898 51.9991 50.9828 51.8507C51.0881 51.6824 51.0108 51.3647 50.9423 51.1328C50.8791 50.919 50.7076 50.7399 50.6095 50.5333C50.099 49.4584 50.1018 49.4571 51.2507 48.9515C51.7946 48.7121 51.9746 48.142 51.6247 47.7667C52.3902 47.4765 53.1557 47.1863 53.9897 46.8951C55.7595 46.2171 57.4608 45.5401 59.2192 44.8373C59.3907 44.7993 59.5142 44.8108 59.6181 44.771C60.6164 44.3892 60.6936 44.445 60.5462 45.538C60.6762 45.5471 60.8019 45.5567 60.9278 45.5642C61.0357 45.5706 61.1438 45.5745 61.3177 45.5826C61.197 46.3904 61.4281 47.1907 60.5102 47.7577C60.2005 47.949 60.2846 48.7776 60.1781 49.3747C60.4088 49.3969 60.5907 49.4143 60.8099 49.4677C59.6264 50.2687 58.4056 51.0337 57.1537 51.8504C57.1226 51.902 57.0723 51.906 56.9848 51.9231C56.2959 52.2847 55.6946 52.6293 55.0933 52.9739C55.0933 52.9739 55.1054 52.9734 55.0495 52.9763C54.9076 53.0284 54.8217 53.0776 54.7357 53.1267C54.4187 53.2757 54.1018 53.4247 53.6897 53.6284C53.4002 53.7951 53.2059 53.9071 53.0116 54.0191Z" fill="#557387"/>
<path d="M50.7595 61.5527C51.0345 62.0927 50.8422 62.3017 50.1721 62.2436C50.0831 62.1556 49.994 62.0676 49.905 61.9795C50.1707 61.8405 50.4364 61.7016 50.7595 61.5527Z" fill="#26445A"/>
<path d="M33.1769 73.5186C33.1722 73.6968 33.1675 73.875 33.1232 74.1659C33.0627 74.4282 33.0416 74.5778 33.0206 74.7275C32.9637 74.9198 32.9067 75.1122 32.8537 75.3655C32.8285 75.4766 32.7993 75.5267 32.7379 75.606C32.7057 75.6351 32.6851 75.6172 32.6744 75.5338C32.6632 75.153 32.6628 74.8556 32.6624 74.5583C32.6624 74.5583 32.6641 74.555 32.7083 74.5138C32.894 74.1546 33.0355 73.8366 33.1769 73.5186Z" fill="#638398"/>
<path d="M74.4572 31.8964C74.4223 31.8016 74.4292 31.6673 74.4507 31.4669C74.4654 31.4008 74.5271 31.4073 74.5581 31.4094C74.559 31.56 74.529 31.7085 74.4572 31.8964Z" fill="#262E37"/>
<path d="M43.8647 80.3265C43.8696 80.3312 43.8597 80.3219 43.8647 80.3265Z" fill="#152A3A"/>
<path d="M70.9743 39.9236C70.9711 39.8985 71.007 39.8528 71.0812 39.7852C71.0841 39.8099 71.0487 39.8564 70.9743 39.9236Z" fill="#56626D"/>
<path d="M76.2408 71.4167C76.2976 71.3941 76.3539 71.4069 76.4102 71.4197C76.3535 71.4305 76.2969 71.4413 76.2408 71.4167Z" fill="#262E37"/>
<path d="M51.5537 47.7676C51.9746 48.142 51.7946 48.7121 51.2507 48.9515C50.1018 49.4571 50.099 49.4584 50.6095 50.5333C50.7076 50.7399 50.8791 50.919 50.9423 51.1328C51.0108 51.3647 51.0882 51.6824 50.9828 51.8507C50.8898 51.9991 50.5395 52.0712 50.322 52.0407C49.7117 51.9553 49.4236 51.9718 49.753 52.7263C49.9777 53.2409 50.0262 53.8492 50.0624 54.4213C50.0769 54.6504 49.8471 54.895 49.6602 55.1899C49.4009 55.3623 49.2099 55.4773 49.0175 55.5933C49.0162 55.5941 49.0136 55.5959 48.9478 55.5952C48.6075 55.7411 48.333 55.8877 48.0586 56.0343C48.204 56.1197 48.3494 56.205 48.5021 56.2981C48.5093 56.3058 48.5237 56.3214 48.5237 56.3214C47.025 57.3004 45.4942 58.2343 44.0346 59.2685C41.4957 61.0674 39.2246 63.1633 37.2739 65.6705C37.0394 65.4216 36.7428 65.1589 36.6945 64.8566C36.6418 64.5267 36.7047 64.0512 36.9164 63.8286C37.7557 62.946 38.6785 62.1433 39.5526 61.2928C39.6432 61.2046 39.6168 60.9956 39.6433 60.8423C39.7009 60.51 39.7446 60.1746 39.8183 59.8459C39.8886 59.5332 39.9899 59.2275 40.1283 58.7396C40.1965 58.6948 40.4824 58.5526 40.7125 58.3478C41.4533 57.6883 41.3306 56.848 40.4937 56.3505C40.2619 56.2127 40.0559 55.905 39.9908 55.638C39.8303 54.9787 39.7273 54.3005 39.6686 53.6242C39.6495 53.4041 39.8247 53.1585 39.9373 52.938C40.0724 52.6738 40.2356 52.4239 40.3867 52.1679C40.0989 52.1156 39.8112 52.0633 39.4829 51.9728C40.0643 51.6227 40.6863 51.3107 41.3409 50.9468C42.5262 50.5488 43.6891 50.2334 44.8288 49.8493C46.3768 49.3277 47.9071 48.7535 49.4919 48.1596C50.1868 48.0011 50.8347 47.8848 51.5537 47.7676ZM47.6011 56.4072C47.6132 56.3863 47.6253 56.3653 47.6374 56.3444C47.6184 56.3533 47.5994 56.3621 47.6011 56.4072Z" fill="#5C7B90"/>
<path d="M34.8118 66.8133C35.0815 66.4853 35.3151 66.2111 35.5541 65.9307C35.9757 66.71 35.6633 67.3925 34.6029 67.7595C34.671 67.408 34.7234 67.1376 34.8118 66.8133Z" fill="#5C7B90"/>
<path d="M33.82 70.2655C33.7335 70.3088 33.6446 70.3 33.5556 70.2912C33.6317 69.9217 33.7077 69.5521 33.7837 69.1826C33.9129 69.2201 34.0421 69.2576 34.1714 69.295C34.0534 69.6011 33.9355 69.9072 33.82 70.2655Z" fill="#5C7B90"/>
<path d="M33.1819 73.4791C33.0355 73.837 32.894 74.1551 32.7091 74.5126C32.8063 73.8856 32.9469 73.219 33.1365 72.5094C33.1856 72.4664 33.201 72.478 33.201 72.478C33.1965 72.7223 33.1919 72.9667 33.1888 73.2849C33.1902 73.3588 33.1869 73.4392 33.1819 73.4791Z" fill="#557387"/>
<path d="M32.6168 74.6045C32.6628 74.8563 32.6633 75.1537 32.6642 75.5254C32.5739 75.7592 32.483 75.9186 32.3921 76.078C32.3504 76.069 32.3087 76.06 32.2669 76.0509C32.3684 75.584 32.4698 75.117 32.6168 74.6045Z" fill="#557387"/>
<path d="M33.1837 71.4229C33.8192 71.6818 33.4366 72.0508 33.2449 72.4363C33.201 72.4781 33.1856 72.4666 33.1781 72.4602C33.1749 72.3277 33.1791 72.2017 33.1838 71.9465C33.1841 71.6859 33.1839 71.5544 33.1837 71.4229Z" fill="#557387"/>
<path d="M33.1281 71.4375C33.1839 71.5547 33.1841 71.6862 33.184 71.8836C33.0957 72.0089 33.0076 72.0684 32.6903 72.2829C32.8882 71.8526 32.9804 71.6522 33.1281 71.4375Z" fill="#5C7B90"/>
<path d="M34.3535 68.3343C34.313 68.4312 34.2618 68.4827 34.2106 68.5341C34.1749 68.4705 34.1393 68.4068 34.1036 68.3432C34.1834 68.3251 34.2631 68.307 34.3535 68.3343Z" fill="#5C7B90"/>
<path d="M36.404 65.1692C36.3472 65.1918 36.2911 65.179 36.2349 65.1662C36.2915 65.1554 36.348 65.1446 36.404 65.1692Z" fill="#5C7B90"/>
<path d="M34.8756 69.6895C34.8781 69.7564 34.8411 69.8614 34.7547 69.9957C34.7488 69.9258 34.7925 69.8266 34.8756 69.6895Z" fill="#244255"/>
<path d="M39.1834 61.0758C39.186 61.0813 39.1808 61.0703 39.1834 61.0758Z" fill="#5C7B90"/>
<path d="M22.3805 62.9316C22.2338 63.1388 22.0886 63.2861 21.8344 63.5438C21.86 62.6553 21.9034 62.6186 22.3805 62.9316Z" fill="#7E9DAE"/>
<path d="M23.5659 60.6895C23.6126 60.8096 23.6082 60.9209 23.6037 61.0321C23.5128 61.0135 23.4219 60.9948 23.331 60.9761C23.3922 60.8776 23.4535 60.7791 23.5659 60.6895Z" fill="#7E9DAE"/>
<path d="M30.1383 49.0648C30.225 48.9711 30.3271 48.924 30.4293 48.877C30.447 48.9492 30.4648 49.0216 30.4825 49.0939C30.3729 49.0998 30.2634 49.1057 30.1383 49.0648Z" fill="#A1B6BF"/>
<path d="M22.662 60.8053C22.7186 60.7828 22.7746 60.7956 22.8306 60.8083C22.7742 60.8191 22.7178 60.8299 22.662 60.8053Z" fill="#7E9DAE"/>
<path d="M50.3091 55.2623C51.0295 54.8272 51.8176 54.3955 52.6465 54.0059C52.6874 54.048 52.6745 54.1164 52.6141 54.1618C52.3595 54.3199 52.1654 54.4326 51.9712 54.5452C51.4397 54.7854 50.9082 55.0255 50.3091 55.2623Z" fill="#5C7B90"/>
<path d="M55.1621 52.9748C55.6946 52.6293 56.2959 52.2847 56.9604 51.9297C56.6331 52.6228 55.9827 52.8854 55.1621 52.9748Z" fill="#244255"/>
<path d="M49.5974 55.668C49.277 55.8754 48.9567 56.0829 48.58 56.3055C48.5237 56.3207 48.5093 56.3052 48.5121 56.2426C48.6811 55.9851 48.8474 55.7902 49.0136 55.5953C49.0136 55.5953 49.0162 55.5935 49.082 55.5936C49.2768 55.5921 49.4058 55.5905 49.5506 55.6084C49.5665 55.6281 49.5974 55.668 49.5974 55.668Z" fill="#5C7B90"/>
<path d="M53.0493 54.0569C53.2059 53.9065 53.4002 53.7945 53.6504 53.6699C53.4998 53.8033 53.2934 53.9493 53.0493 54.0569Z" fill="#244255"/>
<path d="M53.0094 56.409C52.8571 56.3724 52.6969 56.2816 52.5367 56.1907C52.5899 56.1275 52.643 56.0642 52.6961 56.001C52.7979 56.1189 52.8998 56.2368 53.0094 56.409Z" fill="#244255"/>
<path d="M52.0088 54.5831C52.1654 54.4326 52.3595 54.32 52.6089 54.1963C52.4582 54.3305 52.2523 54.4757 52.0088 54.5831Z" fill="#244255"/>
<path d="M33.0748 74.7161C33.0416 74.5785 33.0627 74.4289 33.1179 74.2334C33.1445 74.3597 33.1367 74.5318 33.0748 74.7161Z" fill="#244255"/>
<path d="M49.7121 55.2461C49.8446 55.2477 49.9772 55.2494 50.176 55.2547C50.0628 55.3834 49.8835 55.5084 49.6508 55.651C49.5974 55.6685 49.5665 55.6286 49.5715 55.5654C49.6217 55.4169 49.6669 55.3315 49.7121 55.2461Z" fill="#5C7B90"/>
<path d="M51.7447 56.5703C51.8002 56.5953 51.8304 56.6442 51.8606 56.6931C51.8135 56.6601 51.7664 56.6272 51.7447 56.5703Z" fill="#244255"/>
<path d="M54.7686 53.1645C54.8217 53.077 54.9076 53.0278 55.0438 52.9736C54.9964 53.0467 54.8989 53.1247 54.7686 53.1645Z" fill="#244255"/>
<path d="M34.4884 71.8552C34.4936 71.8528 34.4832 71.8576 34.4884 71.8552Z" fill="#244255"/>
<path d="M34.6625 71.1589C34.6677 71.1565 34.6574 71.1613 34.6625 71.1589Z" fill="#244255"/>
<path d="M48.9477 55.5947C48.8473 55.7904 48.6811 55.9853 48.5048 56.2351C48.3494 56.2045 48.204 56.1192 48.0586 56.0338C48.333 55.8872 48.6075 55.7406 48.9477 55.5947Z" fill="#557387"/>
<path d="M49.652 55.2461C49.6668 55.3309 49.6216 55.4163 49.5556 55.5453C49.4057 55.5905 49.2768 55.5921 49.0833 55.5927C49.2099 55.4767 49.4009 55.3616 49.652 55.2461Z" fill="#557387"/>
<path d="M47.5907 56.3885C47.5994 56.3615 47.6184 56.3526 47.6374 56.3438C47.6253 56.3647 47.6132 56.3856 47.5907 56.3885Z" fill="#557387"/>
</svg>
