<svg width="30" height="30" viewBox="0 0 30 30" fill="none" xmlns="http://www.w3.org/2000/svg">
<mask id="path-1-inside-1_1218_46" fill="white">
<path d="M30 15C30 23.2843 23.2843 30 15 30C6.71573 30 0 23.2843 0 15C0 6.71573 6.71573 0 15 0C23.2843 0 30 6.71573 30 15ZM7.7335 15C7.7335 19.0132 10.9868 22.2665 15 22.2665C19.0132 22.2665 22.2665 19.0132 22.2665 15C22.2665 10.9868 19.0132 7.7335 15 7.7335C10.9868 7.7335 7.7335 10.9868 7.7335 15Z"/>
</mask>
<path d="M30 15C30 23.2843 23.2843 30 15 30C6.71573 30 0 23.2843 0 15C0 6.71573 6.71573 0 15 0C23.2843 0 30 6.71573 30 15ZM7.7335 15C7.7335 19.0132 10.9868 22.2665 15 22.2665C19.0132 22.2665 22.2665 19.0132 22.2665 15C22.2665 10.9868 19.0132 7.7335 15 7.7335C10.9868 7.7335 7.7335 10.9868 7.7335 15Z" fill="#1A1B25" stroke="#E8E9F3" stroke-opacity="0.5" stroke-width="2" mask="url(#path-1-inside-1_1218_46)"/>
</svg>